<mxfile host="app.diagrams.net" agent="Mozilla/5.0 (Windows NT 10.0; Win64; x64) AppleWebKit/537.36 (KHTML, like Gecko) Chrome/128.0.0.0 Safari/537.36 OPR/114.0.0.0" version="24.8.0">
  <diagram name="Pagina-1" id="qD8-IgMIRUxjnWorhRo1">
    <mxGraphModel dx="1180" dy="1746" grid="1" gridSize="10" guides="1" tooltips="1" connect="1" arrows="1" fold="1" page="1" pageScale="1" pageWidth="827" pageHeight="1169" math="0" shadow="0">
      <root>
        <mxCell id="0" />
        <mxCell id="1" parent="0" />
        <mxCell id="sEaKDgSVYfcNvKfQJnW8-12" value="Data" style="text;html=1;align=center;verticalAlign=middle;resizable=0;points=[];autosize=1;strokeColor=none;fillColor=none;fontFamily=Helvetica;fontSize=10;fontColor=default;flipV=1;" parent="1" vertex="1">
          <mxGeometry x="385.62" y="-507.5" width="40" height="30" as="geometry" />
        </mxCell>
        <mxCell id="YjwHPkgiHejPP97CCBkF-3" value="Utente" style="rounded=0;whiteSpace=wrap;html=1;" parent="1" vertex="1">
          <mxGeometry x="1184.12" y="-314.5" width="110" height="30" as="geometry" />
        </mxCell>
        <mxCell id="YjwHPkgiHejPP97CCBkF-78" value="" style="whiteSpace=wrap;html=1;aspect=fixed;pointerEvents=0;align=center;verticalAlign=top;fontFamily=Helvetica;fontSize=12;fontColor=default;fillColor=none;gradientColor=none;" parent="1" vertex="1">
          <mxGeometry width="20" as="geometry" />
        </mxCell>
        <mxCell id="YjwHPkgiHejPP97CCBkF-81" value="IDUtente" style="text;html=1;align=center;verticalAlign=middle;resizable=0;points=[];autosize=1;strokeColor=none;fillColor=none;fontFamily=Helvetica;fontSize=12;fontColor=default;" parent="1" vertex="1">
          <mxGeometry x="1246.12" y="-367.5" width="70" height="30" as="geometry" />
        </mxCell>
        <mxCell id="YjwHPkgiHejPP97CCBkF-83" value="" style="group;pointerEvents=0;align=center;verticalAlign=top;fontFamily=Helvetica;fontSize=12;fontColor=default;fillColor=none;gradientColor=none;" parent="1" vertex="1" connectable="0">
          <mxGeometry x="1277.12" y="-344.5" width="5" height="30" as="geometry" />
        </mxCell>
        <mxCell id="YjwHPkgiHejPP97CCBkF-84" value="" style="endArrow=none;html=1;rounded=0;fontFamily=Helvetica;fontSize=12;fontColor=default;entryX=0;entryY=0;entryDx=0;entryDy=0;" parent="YjwHPkgiHejPP97CCBkF-83" edge="1">
          <mxGeometry width="50" height="50" relative="1" as="geometry">
            <mxPoint x="2.5" y="30" as="sourcePoint" />
            <mxPoint x="2.5" y="5" as="targetPoint" />
          </mxGeometry>
        </mxCell>
        <mxCell id="YjwHPkgiHejPP97CCBkF-85" value="" style="ellipse;whiteSpace=wrap;html=1;pointerEvents=0;align=center;verticalAlign=top;fontFamily=Helvetica;fontSize=12;fontColor=default;fillColor=none;gradientColor=none;rotation=-180;" parent="YjwHPkgiHejPP97CCBkF-83" vertex="1">
          <mxGeometry width="5" height="5" as="geometry" />
        </mxCell>
        <mxCell id="YjwHPkgiHejPP97CCBkF-86" value="Indirizzo" style="ellipse;whiteSpace=wrap;html=1;pointerEvents=0;align=center;verticalAlign=top;fontFamily=Helvetica;fontSize=12;fontColor=default;fillColor=none;gradientColor=none;" parent="1" vertex="1">
          <mxGeometry x="1172.12" y="-364.5" width="60" height="30" as="geometry" />
        </mxCell>
        <mxCell id="YjwHPkgiHejPP97CCBkF-91" value="" style="endArrow=none;html=1;rounded=0;fontFamily=Helvetica;fontSize=12;fontColor=default;exitX=0.148;exitY=-0.038;exitDx=0;exitDy=0;exitPerimeter=0;entryX=0.505;entryY=1;entryDx=0;entryDy=0;entryPerimeter=0;" parent="1" target="YjwHPkgiHejPP97CCBkF-86" edge="1">
          <mxGeometry width="50" height="50" relative="1" as="geometry">
            <mxPoint x="1202.4" y="-315.6399999999999" as="sourcePoint" />
            <mxPoint x="1204.12" y="-334.5" as="targetPoint" />
          </mxGeometry>
        </mxCell>
        <mxCell id="YjwHPkgiHejPP97CCBkF-92" value="" style="group;pointerEvents=0;align=center;verticalAlign=top;fontFamily=Helvetica;fontSize=12;fontColor=default;fillColor=none;gradientColor=none;rotation=-15;" parent="1" vertex="1" connectable="0">
          <mxGeometry x="1166.12" y="-379.5" width="5" height="30" as="geometry" />
        </mxCell>
        <mxCell id="YjwHPkgiHejPP97CCBkF-93" value="" style="endArrow=none;html=1;rounded=0;fontFamily=Helvetica;fontSize=12;fontColor=default;entryX=0;entryY=0;entryDx=0;entryDy=0;" parent="YjwHPkgiHejPP97CCBkF-92" edge="1">
          <mxGeometry width="50" height="50" relative="1" as="geometry">
            <mxPoint x="6" y="29" as="sourcePoint" />
            <mxPoint y="5" as="targetPoint" />
          </mxGeometry>
        </mxCell>
        <mxCell id="YjwHPkgiHejPP97CCBkF-94" value="" style="ellipse;whiteSpace=wrap;html=1;pointerEvents=0;align=center;verticalAlign=top;fontFamily=Helvetica;fontSize=12;fontColor=default;fillColor=none;gradientColor=none;rotation=-195;" parent="YjwHPkgiHejPP97CCBkF-92" vertex="1">
          <mxGeometry x="-3" width="5" height="5" as="geometry" />
        </mxCell>
        <mxCell id="YjwHPkgiHejPP97CCBkF-96" value="Via" style="text;html=1;align=center;verticalAlign=middle;resizable=0;points=[];autosize=1;strokeColor=none;fillColor=none;fontFamily=Helvetica;fontSize=10;fontColor=default;" parent="1" vertex="1">
          <mxGeometry x="1136.12" y="-401.5" width="40" height="30" as="geometry" />
        </mxCell>
        <mxCell id="YjwHPkgiHejPP97CCBkF-97" value="" style="group;pointerEvents=0;align=center;verticalAlign=top;fontFamily=Helvetica;fontSize=12;fontColor=default;fillColor=none;gradientColor=none;rotation=-5;" parent="1" vertex="1" connectable="0">
          <mxGeometry x="1184.12" y="-392.5" width="5" height="30" as="geometry" />
        </mxCell>
        <mxCell id="YjwHPkgiHejPP97CCBkF-98" value="" style="endArrow=none;html=1;rounded=0;fontFamily=Helvetica;fontSize=12;fontColor=default;entryX=0;entryY=0;entryDx=0;entryDy=0;" parent="YjwHPkgiHejPP97CCBkF-97" edge="1">
          <mxGeometry width="50" height="50" relative="1" as="geometry">
            <mxPoint x="4" y="30" as="sourcePoint" />
            <mxPoint x="2" y="5" as="targetPoint" />
          </mxGeometry>
        </mxCell>
        <mxCell id="YjwHPkgiHejPP97CCBkF-99" value="" style="ellipse;whiteSpace=wrap;html=1;pointerEvents=0;align=center;verticalAlign=top;fontFamily=Helvetica;fontSize=12;fontColor=default;fillColor=none;gradientColor=none;rotation=-185;" parent="YjwHPkgiHejPP97CCBkF-97" vertex="1">
          <mxGeometry x="-1" width="5" height="5" as="geometry" />
        </mxCell>
        <mxCell id="YjwHPkgiHejPP97CCBkF-100" value="NCivico" style="text;html=1;align=center;verticalAlign=middle;resizable=0;points=[];autosize=1;strokeColor=none;fillColor=none;fontFamily=Helvetica;fontSize=10;fontColor=default;" parent="1" vertex="1">
          <mxGeometry x="1148.12" y="-416.5" width="60" height="30" as="geometry" />
        </mxCell>
        <mxCell id="YjwHPkgiHejPP97CCBkF-101" value="" style="group;pointerEvents=0;align=center;verticalAlign=top;fontFamily=Helvetica;fontSize=12;fontColor=default;fillColor=none;gradientColor=none;rotation=10;" parent="1" vertex="1" connectable="0">
          <mxGeometry x="1210.12" y="-394.5" width="5" height="30" as="geometry" />
        </mxCell>
        <mxCell id="YjwHPkgiHejPP97CCBkF-102" value="" style="endArrow=none;html=1;rounded=0;fontFamily=Helvetica;fontSize=12;fontColor=default;entryX=0;entryY=0;entryDx=0;entryDy=0;" parent="YjwHPkgiHejPP97CCBkF-101" edge="1">
          <mxGeometry width="50" height="50" relative="1" as="geometry">
            <mxPoint y="30" as="sourcePoint" />
            <mxPoint x="4" y="5" as="targetPoint" />
          </mxGeometry>
        </mxCell>
        <mxCell id="YjwHPkgiHejPP97CCBkF-103" value="" style="ellipse;whiteSpace=wrap;html=1;pointerEvents=0;align=center;verticalAlign=top;fontFamily=Helvetica;fontSize=12;fontColor=default;fillColor=none;gradientColor=none;rotation=-170;" parent="YjwHPkgiHejPP97CCBkF-101" vertex="1">
          <mxGeometry x="2" width="5" height="5" as="geometry" />
        </mxCell>
        <mxCell id="YjwHPkgiHejPP97CCBkF-104" value="Citta" style="text;html=1;align=center;verticalAlign=middle;resizable=0;points=[];autosize=1;strokeColor=none;fillColor=none;fontFamily=Helvetica;fontSize=10;fontColor=default;" parent="1" vertex="1">
          <mxGeometry x="1195.12" y="-416.5" width="40" height="30" as="geometry" />
        </mxCell>
        <mxCell id="YjwHPkgiHejPP97CCBkF-106" value="" style="group;pointerEvents=0;align=center;verticalAlign=top;fontFamily=Helvetica;fontSize=12;fontColor=default;fillColor=none;gradientColor=none;rotation=15;" parent="1" vertex="1" connectable="0">
          <mxGeometry x="1233.12" y="-377.5" width="8" height="30" as="geometry" />
        </mxCell>
        <mxCell id="YjwHPkgiHejPP97CCBkF-107" value="" style="endArrow=none;html=1;rounded=0;fontFamily=Helvetica;fontSize=12;fontColor=default;entryX=0;entryY=0;entryDx=0;entryDy=0;" parent="YjwHPkgiHejPP97CCBkF-106" edge="1">
          <mxGeometry width="50" height="50" relative="1" as="geometry">
            <mxPoint x="-1" y="29" as="sourcePoint" />
            <mxPoint x="5" y="5" as="targetPoint" />
          </mxGeometry>
        </mxCell>
        <mxCell id="YjwHPkgiHejPP97CCBkF-108" value="" style="ellipse;whiteSpace=wrap;html=1;pointerEvents=0;align=center;verticalAlign=top;fontFamily=Helvetica;fontSize=12;fontColor=default;fillColor=none;gradientColor=none;rotation=-165;" parent="YjwHPkgiHejPP97CCBkF-106" vertex="1">
          <mxGeometry x="3" width="5" height="5" as="geometry" />
        </mxCell>
        <mxCell id="YjwHPkgiHejPP97CCBkF-109" value="Provincia" style="text;html=1;align=center;verticalAlign=middle;resizable=0;points=[];autosize=1;strokeColor=none;fillColor=none;fontFamily=Helvetica;fontSize=10;fontColor=default;" parent="1" vertex="1">
          <mxGeometry x="1210.12" y="-399.5" width="60" height="30" as="geometry" />
        </mxCell>
        <mxCell id="YjwHPkgiHejPP97CCBkF-113" value="" style="group" parent="1" vertex="1" connectable="0">
          <mxGeometry x="1200.12" y="-444.5" width="5" height="30" as="geometry" />
        </mxCell>
        <mxCell id="YjwHPkgiHejPP97CCBkF-114" value="" style="endArrow=none;html=1;rounded=0;fontFamily=Helvetica;fontSize=12;fontColor=default;entryX=0;entryY=0;entryDx=0;entryDy=0;" parent="YjwHPkgiHejPP97CCBkF-113" edge="1">
          <mxGeometry width="50" height="50" relative="1" as="geometry">
            <mxPoint x="2.5" y="30" as="sourcePoint" />
            <mxPoint x="2.5" y="5" as="targetPoint" />
          </mxGeometry>
        </mxCell>
        <mxCell id="YjwHPkgiHejPP97CCBkF-115" value="" style="whiteSpace=wrap;html=1;aspect=fixed;pointerEvents=0;align=center;verticalAlign=top;fontFamily=Helvetica;fontSize=12;fillColor=#000000;strokeColor=#000000;fillStyle=auto;" parent="YjwHPkgiHejPP97CCBkF-113" vertex="1">
          <mxGeometry width="5" height="5" as="geometry" />
        </mxCell>
        <mxCell id="YjwHPkgiHejPP97CCBkF-117" value="Indirizzo" style="text;html=1;align=center;verticalAlign=middle;resizable=0;points=[];autosize=1;strokeColor=none;fillColor=none;fontFamily=Helvetica;fontSize=10;fontColor=default;" parent="1" vertex="1">
          <mxGeometry x="1171.12" y="-470.5" width="60" height="30" as="geometry" />
        </mxCell>
        <mxCell id="YjwHPkgiHejPP97CCBkF-121" value="DataNascita" style="text;html=1;align=center;verticalAlign=middle;resizable=0;points=[];autosize=1;strokeColor=none;fillColor=none;fontFamily=Helvetica;fontSize=10;fontColor=default;" parent="1" vertex="1">
          <mxGeometry x="1318.12" y="-358.5" width="80" height="30" as="geometry" />
        </mxCell>
        <mxCell id="YjwHPkgiHejPP97CCBkF-129" value="Telefono" style="text;html=1;align=center;verticalAlign=middle;resizable=0;points=[];autosize=1;strokeColor=none;fillColor=none;fontFamily=Helvetica;fontSize=10;fontColor=default;" parent="1" vertex="1">
          <mxGeometry x="1318.12" y="-302.5" width="60" height="30" as="geometry" />
        </mxCell>
        <mxCell id="YjwHPkgiHejPP97CCBkF-143" value="" style="group;direction=east;rotation=-90;pointerEvents=0;align=center;verticalAlign=top;fontFamily=Helvetica;fontSize=12;fontColor=default;fillColor=none;gradientColor=none;" parent="1" vertex="1" connectable="0">
          <mxGeometry x="1306.12" y="-326.5" width="5" height="30" as="geometry" />
        </mxCell>
        <mxCell id="YjwHPkgiHejPP97CCBkF-144" value="" style="endArrow=none;html=1;rounded=0;fontFamily=Helvetica;fontSize=12;fontColor=default;entryX=0;entryY=0;entryDx=0;entryDy=0;" parent="YjwHPkgiHejPP97CCBkF-143" edge="1">
          <mxGeometry width="50" height="50" relative="1" as="geometry">
            <mxPoint x="-12" y="15" as="sourcePoint" />
            <mxPoint x="13" y="15" as="targetPoint" />
          </mxGeometry>
        </mxCell>
        <mxCell id="YjwHPkgiHejPP97CCBkF-145" value="" style="ellipse;whiteSpace=wrap;html=1;pointerEvents=0;align=center;verticalAlign=top;fontFamily=Helvetica;fontSize=12;fontColor=default;fillColor=none;gradientColor=none;rotation=-90;" parent="YjwHPkgiHejPP97CCBkF-143" vertex="1">
          <mxGeometry x="13" y="13" width="5" height="5" as="geometry" />
        </mxCell>
        <mxCell id="YjwHPkgiHejPP97CCBkF-147" value="" style="group;direction=east;rotation=-90;pointerEvents=0;align=center;verticalAlign=top;fontFamily=Helvetica;fontSize=12;fontColor=default;fillColor=none;gradientColor=none;" parent="1" vertex="1" connectable="0">
          <mxGeometry x="1306.12" y="-300.5" width="5" height="30" as="geometry" />
        </mxCell>
        <mxCell id="YjwHPkgiHejPP97CCBkF-148" value="" style="endArrow=none;html=1;rounded=0;fontFamily=Helvetica;fontSize=12;fontColor=default;entryX=0;entryY=0;entryDx=0;entryDy=0;" parent="YjwHPkgiHejPP97CCBkF-147" edge="1">
          <mxGeometry width="50" height="50" relative="1" as="geometry">
            <mxPoint x="-12" y="15" as="sourcePoint" />
            <mxPoint x="13" y="15" as="targetPoint" />
          </mxGeometry>
        </mxCell>
        <mxCell id="YjwHPkgiHejPP97CCBkF-149" value="" style="ellipse;whiteSpace=wrap;html=1;pointerEvents=0;align=center;verticalAlign=top;fontFamily=Helvetica;fontSize=12;fontColor=default;fillColor=none;gradientColor=none;rotation=-90;" parent="YjwHPkgiHejPP97CCBkF-147" vertex="1">
          <mxGeometry x="13" y="13" width="5" height="5" as="geometry" />
        </mxCell>
        <mxCell id="YjwHPkgiHejPP97CCBkF-150" value="" style="shape=flexArrow;endArrow=classic;html=1;rounded=0;fontFamily=Helvetica;fontSize=12;fontColor=default;entryX=0.578;entryY=1.011;entryDx=0;entryDy=0;entryPerimeter=0;labelBackgroundColor=#000000;fillColor=#000000;exitX=1;exitY=1;exitDx=0;exitDy=0;" parent="1" source="YjwHPkgiHejPP97CCBkF-153" target="YjwHPkgiHejPP97CCBkF-3" edge="1">
          <mxGeometry width="50" height="50" relative="1" as="geometry">
            <mxPoint x="1308" y="-244.5" as="sourcePoint" />
            <mxPoint x="1268" y="-284.5" as="targetPoint" />
          </mxGeometry>
        </mxCell>
        <mxCell id="YjwHPkgiHejPP97CCBkF-151" value="" style="shape=curlyBracket;whiteSpace=wrap;html=1;rounded=1;labelPosition=left;verticalLabelPosition=middle;align=right;verticalAlign=middle;pointerEvents=0;fontFamily=Helvetica;fontSize=12;fontColor=default;fillColor=none;gradientColor=none;rotation=90;" parent="1" vertex="1">
          <mxGeometry x="1185.12" y="-470.5" width="20" height="120" as="geometry" />
        </mxCell>
        <mxCell id="YjwHPkgiHejPP97CCBkF-153" value="" style="shape=partialRectangle;whiteSpace=wrap;html=1;bottom=1;right=1;left=1;top=0;fillColor=none;routingCenterX=-0.5;pointerEvents=0;align=center;verticalAlign=top;fontFamily=Helvetica;fontSize=12;fontColor=default;rotation=-180;" parent="1" vertex="1">
          <mxGeometry x="1246" y="-244.5" width="125" height="30" as="geometry" />
        </mxCell>
        <mxCell id="YjwHPkgiHejPP97CCBkF-154" value="" style="group;pointerEvents=0;align=center;verticalAlign=top;fontFamily=Helvetica;fontSize=12;fontColor=default;fillColor=none;gradientColor=none;rotation=60;" parent="1" vertex="1" connectable="0">
          <mxGeometry x="1312.12" y="-344.5" width="16" height="60" as="geometry" />
        </mxCell>
        <mxCell id="YjwHPkgiHejPP97CCBkF-155" value="" style="endArrow=none;html=1;rounded=0;fontFamily=Helvetica;fontSize=12;fontColor=default;entryX=0;entryY=0;entryDx=0;entryDy=0;" parent="YjwHPkgiHejPP97CCBkF-154" edge="1">
          <mxGeometry width="50" height="50" relative="1" as="geometry">
            <mxPoint x="-10" y="23" as="sourcePoint" />
            <mxPoint x="11" y="10" as="targetPoint" />
          </mxGeometry>
        </mxCell>
        <mxCell id="YjwHPkgiHejPP97CCBkF-156" value="" style="ellipse;whiteSpace=wrap;html=1;pointerEvents=0;align=center;verticalAlign=top;fontFamily=Helvetica;fontSize=12;fontColor=default;fillColor=none;gradientColor=none;rotation=-120;" parent="YjwHPkgiHejPP97CCBkF-154" vertex="1">
          <mxGeometry x="11" y="6" width="5" height="5" as="geometry" />
        </mxCell>
        <mxCell id="YjwHPkgiHejPP97CCBkF-157" value="" style="endArrow=none;html=1;rounded=0;fontFamily=Helvetica;fontSize=12;fontColor=default;" parent="1" edge="1">
          <mxGeometry width="50" height="50" relative="1" as="geometry">
            <mxPoint x="1290.12" y="-314.5" as="sourcePoint" />
            <mxPoint x="1307.12" y="-324.5" as="targetPoint" />
          </mxGeometry>
        </mxCell>
        <mxCell id="YjwHPkgiHejPP97CCBkF-125" value="Email" style="text;html=1;align=center;verticalAlign=middle;resizable=0;points=[];autosize=1;strokeColor=none;fillColor=none;fontFamily=Helvetica;fontSize=10;fontColor=default;" parent="1" vertex="1">
          <mxGeometry x="1323.12" y="-324.5" width="50" height="30" as="geometry" />
        </mxCell>
        <mxCell id="YjwHPkgiHejPP97CCBkF-158" value="Cittadino" style="rounded=0;whiteSpace=wrap;html=1;pointerEvents=0;align=center;verticalAlign=middle;fontFamily=Helvetica;fontSize=12;fontColor=default;fillColor=none;gradientColor=none;" parent="1" vertex="1">
          <mxGeometry x="1213" y="-214.5" width="66" height="20" as="geometry" />
        </mxCell>
        <mxCell id="YjwHPkgiHejPP97CCBkF-159" value="SuperAdmin" style="rounded=0;whiteSpace=wrap;html=1;pointerEvents=0;align=center;verticalAlign=middle;fontFamily=Helvetica;fontSize=12;fontColor=default;fillColor=none;gradientColor=none;" parent="1" vertex="1">
          <mxGeometry x="1335" y="-214.5" width="73" height="20" as="geometry" />
        </mxCell>
        <mxCell id="YjwHPkgiHejPP97CCBkF-160" value="" style="group;pointerEvents=0;align=center;verticalAlign=top;fontFamily=Helvetica;fontSize=12;fontColor=default;fillColor=none;gradientColor=none;" parent="1" vertex="1" connectable="0">
          <mxGeometry x="1210.5" y="-206.5" width="5" height="30" as="geometry" />
        </mxCell>
        <mxCell id="YjwHPkgiHejPP97CCBkF-161" value="" style="endArrow=none;html=1;rounded=0;fontFamily=Helvetica;fontSize=12;fontColor=default;entryX=0;entryY=0;entryDx=0;entryDy=0;" parent="YjwHPkgiHejPP97CCBkF-160" edge="1">
          <mxGeometry width="50" height="50" relative="1" as="geometry">
            <mxPoint x="2.5" as="sourcePoint" />
            <mxPoint x="2.5" y="25" as="targetPoint" />
          </mxGeometry>
        </mxCell>
        <mxCell id="YjwHPkgiHejPP97CCBkF-162" value="" style="ellipse;whiteSpace=wrap;html=1;pointerEvents=0;align=center;verticalAlign=top;fontFamily=Helvetica;fontSize=12;fontColor=default;fillColor=none;gradientColor=none;" parent="YjwHPkgiHejPP97CCBkF-160" vertex="1">
          <mxGeometry y="25" width="5" height="5" as="geometry" />
        </mxCell>
        <mxCell id="YjwHPkgiHejPP97CCBkF-163" value="CI" style="text;html=1;align=center;verticalAlign=middle;resizable=0;points=[];autosize=1;strokeColor=none;fillColor=none;fontFamily=Helvetica;fontSize=10;fontColor=default;" parent="1" vertex="1">
          <mxGeometry x="1197" y="-184.5" width="30" height="30" as="geometry" />
        </mxCell>
        <mxCell id="YjwHPkgiHejPP97CCBkF-171" value="" style="group;direction=east;rotation=-90;pointerEvents=0;align=center;verticalAlign=top;fontFamily=Helvetica;fontSize=12;fontColor=default;fillColor=none;gradientColor=none;" parent="1" vertex="1" connectable="0">
          <mxGeometry x="1408" y="-229.5" width="5" height="30" as="geometry" />
        </mxCell>
        <mxCell id="YjwHPkgiHejPP97CCBkF-172" value="" style="endArrow=none;html=1;rounded=0;fontFamily=Helvetica;fontSize=12;fontColor=default;entryX=0;entryY=0;entryDx=0;entryDy=0;" parent="YjwHPkgiHejPP97CCBkF-171" edge="1">
          <mxGeometry width="50" height="50" relative="1" as="geometry">
            <mxPoint x="-12" y="15" as="sourcePoint" />
            <mxPoint x="13" y="15" as="targetPoint" />
          </mxGeometry>
        </mxCell>
        <mxCell id="YjwHPkgiHejPP97CCBkF-173" value="" style="ellipse;whiteSpace=wrap;html=1;pointerEvents=0;align=center;verticalAlign=top;fontFamily=Helvetica;fontSize=12;fontColor=default;fillColor=none;gradientColor=none;rotation=-90;" parent="YjwHPkgiHejPP97CCBkF-171" vertex="1">
          <mxGeometry x="13" y="13" width="5" height="5" as="geometry" />
        </mxCell>
        <mxCell id="YjwHPkgiHejPP97CCBkF-174" value="Ruolo" style="text;html=1;align=center;verticalAlign=middle;resizable=0;points=[];autosize=1;strokeColor=none;fillColor=none;fontFamily=Helvetica;fontSize=10;fontColor=default;" parent="1" vertex="1">
          <mxGeometry x="1415" y="-236.5" width="50" height="30" as="geometry" />
        </mxCell>
        <mxCell id="YjwHPkgiHejPP97CCBkF-175" value="" style="group;direction=east;rotation=-90;pointerEvents=0;align=center;verticalAlign=top;fontFamily=Helvetica;fontSize=12;fontColor=default;fillColor=none;gradientColor=none;" parent="1" vertex="1" connectable="0">
          <mxGeometry x="1420" y="-218.5" width="5" height="30" as="geometry" />
        </mxCell>
        <mxCell id="YjwHPkgiHejPP97CCBkF-176" value="" style="endArrow=none;html=1;rounded=0;fontFamily=Helvetica;fontSize=12;fontColor=default;entryX=0;entryY=0;entryDx=0;entryDy=0;" parent="YjwHPkgiHejPP97CCBkF-175" edge="1">
          <mxGeometry width="50" height="50" relative="1" as="geometry">
            <mxPoint x="-12" y="15" as="sourcePoint" />
            <mxPoint x="13" y="15" as="targetPoint" />
          </mxGeometry>
        </mxCell>
        <mxCell id="YjwHPkgiHejPP97CCBkF-177" value="" style="ellipse;whiteSpace=wrap;html=1;pointerEvents=0;align=center;verticalAlign=top;fontFamily=Helvetica;fontSize=12;fontColor=default;fillColor=none;gradientColor=none;rotation=-90;" parent="YjwHPkgiHejPP97CCBkF-175" vertex="1">
          <mxGeometry x="13" y="13" width="5" height="5" as="geometry" />
        </mxCell>
        <mxCell id="YjwHPkgiHejPP97CCBkF-178" value="DataAssegnazioneRuolo" style="text;html=1;align=center;verticalAlign=middle;resizable=0;points=[];autosize=1;strokeColor=none;fillColor=none;fontFamily=Helvetica;fontSize=10;fontColor=default;" parent="1" vertex="1">
          <mxGeometry x="1431" y="-219.5" width="130" height="30" as="geometry" />
        </mxCell>
        <mxCell id="YjwHPkgiHejPP97CCBkF-182" value="" style="group;pointerEvents=0;align=center;verticalAlign=top;fontFamily=Helvetica;fontSize=12;fontColor=default;fillColor=none;gradientColor=none;" parent="1" vertex="1" connectable="0">
          <mxGeometry x="1332.5" y="-205.5" width="5" height="30" as="geometry" />
        </mxCell>
        <mxCell id="YjwHPkgiHejPP97CCBkF-183" value="" style="endArrow=none;html=1;rounded=0;fontFamily=Helvetica;fontSize=12;fontColor=default;entryX=0;entryY=0;entryDx=0;entryDy=0;" parent="YjwHPkgiHejPP97CCBkF-182" edge="1">
          <mxGeometry width="50" height="50" relative="1" as="geometry">
            <mxPoint x="2.5" as="sourcePoint" />
            <mxPoint x="2.5" y="25" as="targetPoint" />
          </mxGeometry>
        </mxCell>
        <mxCell id="YjwHPkgiHejPP97CCBkF-184" value="" style="ellipse;whiteSpace=wrap;html=1;pointerEvents=0;align=center;verticalAlign=top;fontFamily=Helvetica;fontSize=12;fontColor=default;fillColor=none;gradientColor=none;" parent="YjwHPkgiHejPP97CCBkF-182" vertex="1">
          <mxGeometry y="25" width="5" height="5" as="geometry" />
        </mxCell>
        <mxCell id="YjwHPkgiHejPP97CCBkF-185" value="UltimoAccesso" style="text;html=1;align=center;verticalAlign=middle;resizable=0;points=[];autosize=1;strokeColor=none;fillColor=none;fontFamily=Helvetica;fontSize=10;fontColor=default;" parent="1" vertex="1">
          <mxGeometry x="1292" y="-183.5" width="90" height="30" as="geometry" />
        </mxCell>
        <mxCell id="YjwHPkgiHejPP97CCBkF-186" value="" style="group;pointerEvents=0;align=center;verticalAlign=top;fontFamily=Helvetica;fontSize=12;fontColor=default;fillColor=none;gradientColor=none;" parent="1" vertex="1" connectable="0">
          <mxGeometry x="1388" y="-194.5" width="5" height="30" as="geometry" />
        </mxCell>
        <mxCell id="YjwHPkgiHejPP97CCBkF-187" value="" style="endArrow=none;html=1;rounded=0;fontFamily=Helvetica;fontSize=12;fontColor=default;entryX=0;entryY=0;entryDx=0;entryDy=0;" parent="YjwHPkgiHejPP97CCBkF-186" edge="1">
          <mxGeometry width="50" height="50" relative="1" as="geometry">
            <mxPoint x="2.5" as="sourcePoint" />
            <mxPoint x="2.5" y="25" as="targetPoint" />
          </mxGeometry>
        </mxCell>
        <mxCell id="YjwHPkgiHejPP97CCBkF-188" value="" style="ellipse;whiteSpace=wrap;html=1;pointerEvents=0;align=center;verticalAlign=top;fontFamily=Helvetica;fontSize=12;fontColor=default;fillColor=none;gradientColor=none;" parent="YjwHPkgiHejPP97CCBkF-186" vertex="1">
          <mxGeometry y="25" width="5" height="5" as="geometry" />
        </mxCell>
        <mxCell id="YjwHPkgiHejPP97CCBkF-189" value="LogAttivita" style="text;html=1;align=center;verticalAlign=middle;resizable=0;points=[];autosize=1;strokeColor=none;fillColor=none;fontFamily=Helvetica;fontSize=10;fontColor=default;" parent="1" vertex="1">
          <mxGeometry x="1370" y="-173.5" width="70" height="30" as="geometry" />
        </mxCell>
        <mxCell id="YjwHPkgiHejPP97CCBkF-190" value="" style="group;pointerEvents=0;align=center;verticalAlign=top;fontFamily=Helvetica;fontSize=12;fontColor=default;fillColor=none;gradientColor=none;rotation=-45;" parent="1" vertex="1" connectable="0">
          <mxGeometry x="1416" y="-198.5" width="5" height="30" as="geometry" />
        </mxCell>
        <mxCell id="YjwHPkgiHejPP97CCBkF-191" value="" style="endArrow=none;html=1;rounded=0;fontFamily=Helvetica;fontSize=12;fontColor=default;entryX=0;entryY=0;entryDx=0;entryDy=0;" parent="YjwHPkgiHejPP97CCBkF-190" edge="1">
          <mxGeometry width="50" height="50" relative="1" as="geometry">
            <mxPoint x="-8" y="4" as="sourcePoint" />
            <mxPoint x="10" y="22" as="targetPoint" />
          </mxGeometry>
        </mxCell>
        <mxCell id="YjwHPkgiHejPP97CCBkF-192" value="" style="ellipse;whiteSpace=wrap;html=1;pointerEvents=0;align=center;verticalAlign=top;fontFamily=Helvetica;fontSize=12;fontColor=default;fillColor=none;gradientColor=none;rotation=-45;" parent="YjwHPkgiHejPP97CCBkF-190" vertex="1">
          <mxGeometry x="9" y="21" width="5" height="5" as="geometry" />
        </mxCell>
        <mxCell id="YjwHPkgiHejPP97CCBkF-193" value="Stato" style="text;html=1;align=center;verticalAlign=middle;resizable=0;points=[];autosize=1;strokeColor=none;fillColor=none;fontFamily=Helvetica;fontSize=10;fontColor=default;" parent="1" vertex="1">
          <mxGeometry x="1423" y="-189.5" width="50" height="30" as="geometry" />
        </mxCell>
        <mxCell id="YjwHPkgiHejPP97CCBkF-194" value="Citta" style="rounded=0;whiteSpace=wrap;html=1;" parent="1" vertex="1">
          <mxGeometry x="29.5" y="-890" width="80" height="30" as="geometry" />
        </mxCell>
        <mxCell id="YjwHPkgiHejPP97CCBkF-195" value="" style="group;pointerEvents=0;align=center;verticalAlign=top;fontFamily=Helvetica;fontSize=12;fontColor=default;fillColor=none;gradientColor=none;" parent="1" vertex="1" connectable="0">
          <mxGeometry x="31.5" y="-920" width="5" height="30" as="geometry" />
        </mxCell>
        <mxCell id="YjwHPkgiHejPP97CCBkF-196" value="" style="endArrow=none;html=1;rounded=0;fontFamily=Helvetica;fontSize=12;fontColor=default;entryX=0;entryY=0;entryDx=0;entryDy=0;" parent="YjwHPkgiHejPP97CCBkF-195" edge="1">
          <mxGeometry width="50" height="50" relative="1" as="geometry">
            <mxPoint x="2.5" y="30" as="sourcePoint" />
            <mxPoint x="2.5" y="5" as="targetPoint" />
          </mxGeometry>
        </mxCell>
        <mxCell id="YjwHPkgiHejPP97CCBkF-197" value="" style="ellipse;whiteSpace=wrap;html=1;pointerEvents=0;align=center;verticalAlign=top;fontFamily=Helvetica;fontSize=12;fillColor=#000000;strokeColor=#000000;fontColor=default;rotation=-180;" parent="YjwHPkgiHejPP97CCBkF-195" vertex="1">
          <mxGeometry width="5" height="5" as="geometry" />
        </mxCell>
        <mxCell id="YjwHPkgiHejPP97CCBkF-198" value="IDCitta" style="text;html=1;align=center;verticalAlign=middle;resizable=0;points=[];autosize=1;strokeColor=none;fillColor=none;fontFamily=Helvetica;fontSize=10;fontColor=default;" parent="1" vertex="1">
          <mxGeometry x="10" y="-945" width="50" height="30" as="geometry" />
        </mxCell>
        <mxCell id="YjwHPkgiHejPP97CCBkF-199" value="" style="group;pointerEvents=0;align=center;verticalAlign=top;fontFamily=Helvetica;fontSize=12;fontColor=default;fillColor=none;gradientColor=none;" parent="1" vertex="1" connectable="0">
          <mxGeometry x="69.5" y="-920" width="5" height="30" as="geometry" />
        </mxCell>
        <mxCell id="YjwHPkgiHejPP97CCBkF-200" value="" style="endArrow=none;html=1;rounded=0;fontFamily=Helvetica;fontSize=12;fontColor=default;entryX=0;entryY=0;entryDx=0;entryDy=0;" parent="YjwHPkgiHejPP97CCBkF-199" edge="1">
          <mxGeometry width="50" height="50" relative="1" as="geometry">
            <mxPoint x="2.5" y="30" as="sourcePoint" />
            <mxPoint x="2.5" y="5" as="targetPoint" />
          </mxGeometry>
        </mxCell>
        <mxCell id="YjwHPkgiHejPP97CCBkF-201" value="" style="ellipse;whiteSpace=wrap;html=1;pointerEvents=0;align=center;verticalAlign=top;fontFamily=Helvetica;fontSize=12;fontColor=default;fillColor=none;gradientColor=none;rotation=-180;" parent="YjwHPkgiHejPP97CCBkF-199" vertex="1">
          <mxGeometry width="5" height="5" as="geometry" />
        </mxCell>
        <mxCell id="YjwHPkgiHejPP97CCBkF-202" value="Nome" style="text;html=1;align=center;verticalAlign=middle;resizable=0;points=[];autosize=1;strokeColor=none;fillColor=none;fontFamily=Helvetica;fontSize=10;fontColor=default;" parent="1" vertex="1">
          <mxGeometry x="47.5" y="-943" width="50" height="30" as="geometry" />
        </mxCell>
        <mxCell id="YjwHPkgiHejPP97CCBkF-203" value="" style="group;pointerEvents=0;align=center;verticalAlign=top;fontFamily=Helvetica;fontSize=12;fontColor=default;fillColor=none;gradientColor=none;" parent="1" vertex="1" connectable="0">
          <mxGeometry x="99.5" y="-920" width="5" height="30" as="geometry" />
        </mxCell>
        <mxCell id="YjwHPkgiHejPP97CCBkF-204" value="" style="endArrow=none;html=1;rounded=0;fontFamily=Helvetica;fontSize=12;fontColor=default;entryX=0;entryY=0;entryDx=0;entryDy=0;" parent="YjwHPkgiHejPP97CCBkF-203" edge="1">
          <mxGeometry width="50" height="50" relative="1" as="geometry">
            <mxPoint x="2.5" y="30" as="sourcePoint" />
            <mxPoint x="2.5" y="5" as="targetPoint" />
          </mxGeometry>
        </mxCell>
        <mxCell id="YjwHPkgiHejPP97CCBkF-205" value="" style="ellipse;whiteSpace=wrap;html=1;pointerEvents=0;align=center;verticalAlign=top;fontFamily=Helvetica;fontSize=12;fontColor=default;fillColor=none;gradientColor=none;rotation=-180;" parent="YjwHPkgiHejPP97CCBkF-203" vertex="1">
          <mxGeometry width="5" height="5" as="geometry" />
        </mxCell>
        <mxCell id="YjwHPkgiHejPP97CCBkF-206" value="Regione" style="text;html=1;align=center;verticalAlign=middle;resizable=0;points=[];autosize=1;strokeColor=none;fillColor=none;fontFamily=Helvetica;fontSize=10;fontColor=default;" parent="1" vertex="1">
          <mxGeometry x="85" y="-943" width="60" height="30" as="geometry" />
        </mxCell>
        <mxCell id="YjwHPkgiHejPP97CCBkF-214" value="Risorsa&lt;div&gt;Pubblica&lt;/div&gt;" style="rounded=0;whiteSpace=wrap;html=1;" parent="1" vertex="1">
          <mxGeometry x="173.5" y="-787" width="80" height="30" as="geometry" />
        </mxCell>
        <mxCell id="YjwHPkgiHejPP97CCBkF-215" value="" style="group;pointerEvents=0;align=center;verticalAlign=top;fontFamily=Helvetica;fontSize=12;fontColor=default;fillColor=none;gradientColor=none;" parent="1" vertex="1" connectable="0">
          <mxGeometry x="171" y="-805" width="5" height="30" as="geometry" />
        </mxCell>
        <mxCell id="YjwHPkgiHejPP97CCBkF-216" value="" style="endArrow=none;html=1;rounded=0;fontFamily=Helvetica;fontSize=12;fontColor=default;entryX=0;entryY=0;entryDx=0;entryDy=0;" parent="YjwHPkgiHejPP97CCBkF-215" edge="1">
          <mxGeometry width="50" height="50" relative="1" as="geometry">
            <mxPoint x="2.5" y="30" as="sourcePoint" />
            <mxPoint x="2.5" y="5" as="targetPoint" />
          </mxGeometry>
        </mxCell>
        <mxCell id="YjwHPkgiHejPP97CCBkF-217" value="" style="ellipse;whiteSpace=wrap;html=1;pointerEvents=0;align=center;verticalAlign=top;fontFamily=Helvetica;fontSize=12;fillColor=#000000;strokeColor=#000000;fontColor=default;rotation=-180;" parent="YjwHPkgiHejPP97CCBkF-215" vertex="1">
          <mxGeometry width="5" height="5" as="geometry" />
        </mxCell>
        <mxCell id="YjwHPkgiHejPP97CCBkF-218" value="IDRisorsaPubblica" style="text;html=1;align=center;verticalAlign=middle;resizable=0;points=[];autosize=1;strokeColor=none;fillColor=none;fontFamily=Helvetica;fontSize=10;fontColor=default;" parent="1" vertex="1">
          <mxGeometry x="118" y="-828" width="110" height="30" as="geometry" />
        </mxCell>
        <mxCell id="YjwHPkgiHejPP97CCBkF-219" value="" style="group;pointerEvents=0;align=center;verticalAlign=top;fontFamily=Helvetica;fontSize=12;fontColor=default;fillColor=none;gradientColor=none;" parent="1" vertex="1" connectable="0">
          <mxGeometry x="251" y="-805" width="5" height="30" as="geometry" />
        </mxCell>
        <mxCell id="YjwHPkgiHejPP97CCBkF-220" value="" style="endArrow=none;html=1;rounded=0;fontFamily=Helvetica;fontSize=12;fontColor=default;entryX=0;entryY=0;entryDx=0;entryDy=0;" parent="YjwHPkgiHejPP97CCBkF-219" edge="1">
          <mxGeometry width="50" height="50" relative="1" as="geometry">
            <mxPoint x="2.5" y="30" as="sourcePoint" />
            <mxPoint x="2.5" y="5" as="targetPoint" />
          </mxGeometry>
        </mxCell>
        <mxCell id="YjwHPkgiHejPP97CCBkF-221" value="" style="ellipse;whiteSpace=wrap;html=1;pointerEvents=0;align=center;verticalAlign=top;fontFamily=Helvetica;fontSize=12;fontColor=default;fillColor=none;gradientColor=none;rotation=-180;" parent="YjwHPkgiHejPP97CCBkF-219" vertex="1">
          <mxGeometry width="5" height="5" as="geometry" />
        </mxCell>
        <mxCell id="YjwHPkgiHejPP97CCBkF-222" value="Tipo" style="text;html=1;align=center;verticalAlign=middle;resizable=0;points=[];autosize=1;strokeColor=none;fillColor=none;fontFamily=Helvetica;fontSize=10;fontColor=default;" parent="1" vertex="1">
          <mxGeometry x="231.5" y="-829" width="40" height="30" as="geometry" />
        </mxCell>
        <mxCell id="pfabtf4lPMMX-cfPk-Wo-1" style="edgeStyle=orthogonalEdgeStyle;rounded=0;orthogonalLoop=1;jettySize=auto;html=1;exitX=0.5;exitY=1;exitDx=0;exitDy=0;entryX=0;entryY=0.25;entryDx=0;entryDy=0;endArrow=none;endFill=0;" parent="1" source="YjwHPkgiHejPP97CCBkF-231" target="f8H7bPCvHPPE9_fxp1JB-1" edge="1">
          <mxGeometry relative="1" as="geometry" />
        </mxCell>
        <mxCell id="YjwHPkgiHejPP97CCBkF-231" value="&lt;font style=&quot;font-size: 10px;&quot;&gt;Spesa&lt;/font&gt;&lt;div style=&quot;font-size: 10px;&quot;&gt;&lt;font style=&quot;font-size: 10px;&quot;&gt;Pubblica&lt;/font&gt;&lt;/div&gt;" style="rhombus;whiteSpace=wrap;html=1;pointerEvents=0;align=center;verticalAlign=top;fontFamily=Helvetica;fontSize=12;fontColor=default;fillColor=none;gradientColor=none;" parent="1" vertex="1">
          <mxGeometry x="352.5" y="-854" width="100" height="40" as="geometry" />
        </mxCell>
        <mxCell id="YjwHPkgiHejPP97CCBkF-232" value="" style="endArrow=none;html=1;rounded=0;fontFamily=Helvetica;fontSize=12;fontColor=default;exitX=0;exitY=0;exitDx=0;exitDy=0;" parent="1" source="YjwHPkgiHejPP97CCBkF-231" edge="1">
          <mxGeometry width="50" height="50" relative="1" as="geometry">
            <mxPoint x="239.5" y="-770" as="sourcePoint" />
            <mxPoint x="69.5" y="-844" as="targetPoint" />
            <Array as="points">
              <mxPoint x="69.5" y="-844" />
            </Array>
          </mxGeometry>
        </mxCell>
        <mxCell id="YjwHPkgiHejPP97CCBkF-233" value="" style="endArrow=none;html=1;rounded=0;fontFamily=Helvetica;fontSize=12;fontColor=default;entryX=0;entryY=1;entryDx=0;entryDy=0;exitX=0.995;exitY=0.566;exitDx=0;exitDy=0;exitPerimeter=0;" parent="1" source="YjwHPkgiHejPP97CCBkF-214" target="YjwHPkgiHejPP97CCBkF-231" edge="1">
          <mxGeometry width="50" height="50" relative="1" as="geometry">
            <mxPoint x="259.5" y="-770" as="sourcePoint" />
            <mxPoint x="289.5" y="-820" as="targetPoint" />
            <Array as="points">
              <mxPoint x="377.5" y="-770" />
            </Array>
          </mxGeometry>
        </mxCell>
        <mxCell id="YjwHPkgiHejPP97CCBkF-234" value="(0, N)" style="text;html=1;align=center;verticalAlign=middle;resizable=0;points=[];autosize=1;strokeColor=none;fillColor=none;fontFamily=Helvetica;fontSize=10;fontColor=default;" parent="1" vertex="1">
          <mxGeometry x="206" y="-870" width="50" height="30" as="geometry" />
        </mxCell>
        <mxCell id="YjwHPkgiHejPP97CCBkF-235" value="(1, N)" style="text;html=1;align=center;verticalAlign=middle;resizable=0;points=[];autosize=1;strokeColor=none;fillColor=none;fontFamily=Helvetica;fontSize=10;fontColor=default;" parent="1" vertex="1">
          <mxGeometry x="291.5" y="-795" width="50" height="30" as="geometry" />
        </mxCell>
        <mxCell id="YjwHPkgiHejPP97CCBkF-236" value="" style="group;pointerEvents=0;align=center;verticalAlign=top;fontFamily=Helvetica;fontSize=12;fontColor=default;fillColor=none;gradientColor=none;" parent="1" vertex="1" connectable="0">
          <mxGeometry x="427.5" y="-874" width="5" height="30" as="geometry" />
        </mxCell>
        <mxCell id="YjwHPkgiHejPP97CCBkF-237" value="" style="endArrow=none;html=1;rounded=0;fontFamily=Helvetica;fontSize=12;fontColor=default;entryX=0;entryY=0;entryDx=0;entryDy=0;" parent="YjwHPkgiHejPP97CCBkF-236" edge="1">
          <mxGeometry width="50" height="50" relative="1" as="geometry">
            <mxPoint x="2.5" y="30" as="sourcePoint" />
            <mxPoint x="2.5" y="5" as="targetPoint" />
          </mxGeometry>
        </mxCell>
        <mxCell id="YjwHPkgiHejPP97CCBkF-238" value="" style="ellipse;whiteSpace=wrap;html=1;pointerEvents=0;align=center;verticalAlign=top;fontFamily=Helvetica;fontSize=12;fontColor=default;fillColor=none;gradientColor=none;rotation=-180;" parent="YjwHPkgiHejPP97CCBkF-236" vertex="1">
          <mxGeometry width="5" height="5" as="geometry" />
        </mxCell>
        <mxCell id="YjwHPkgiHejPP97CCBkF-239" value="Costo" style="text;html=1;align=center;verticalAlign=middle;resizable=0;points=[];autosize=1;strokeColor=none;fillColor=none;fontFamily=Helvetica;fontSize=10;fontColor=default;" parent="1" vertex="1">
          <mxGeometry x="404" y="-898" width="50" height="30" as="geometry" />
        </mxCell>
        <mxCell id="YjwHPkgiHejPP97CCBkF-243" value="Data" style="text;html=1;align=center;verticalAlign=middle;resizable=0;points=[];autosize=1;strokeColor=none;fillColor=none;fontFamily=Helvetica;fontSize=10;fontColor=default;" parent="1" vertex="1">
          <mxGeometry x="453" y="-839" width="40" height="30" as="geometry" />
        </mxCell>
        <mxCell id="YjwHPkgiHejPP97CCBkF-244" value="" style="endArrow=none;html=1;rounded=0;fontFamily=Helvetica;fontSize=12;fontColor=default;entryX=0.5;entryY=1;entryDx=0;entryDy=0;" parent="1" target="YjwHPkgiHejPP97CCBkF-194" edge="1">
          <mxGeometry width="50" height="50" relative="1" as="geometry">
            <mxPoint x="69" y="-360" as="sourcePoint" />
            <mxPoint x="69.5" y="-843" as="targetPoint" />
          </mxGeometry>
        </mxCell>
        <mxCell id="YjwHPkgiHejPP97CCBkF-245" value="Dato" style="rounded=0;whiteSpace=wrap;html=1;" parent="1" vertex="1">
          <mxGeometry x="173.5" y="-660" width="80" height="30" as="geometry" />
        </mxCell>
        <mxCell id="YjwHPkgiHejPP97CCBkF-254" value="&lt;div style=&quot;&quot;&gt;&lt;span style=&quot;background-color: initial;&quot;&gt;Sensore&lt;/span&gt;&lt;br&gt;&lt;/div&gt;" style="rhombus;whiteSpace=wrap;html=1;pointerEvents=0;align=center;verticalAlign=top;fontFamily=Helvetica;fontSize=12;fontColor=default;fillColor=none;gradientColor=none;" parent="1" vertex="1">
          <mxGeometry x="352.5" y="-725" width="100" height="27" as="geometry" />
        </mxCell>
        <mxCell id="YjwHPkgiHejPP97CCBkF-255" value="" style="endArrow=none;html=1;rounded=0;fontFamily=Helvetica;fontSize=12;fontColor=default;entryX=0;entryY=1;entryDx=0;entryDy=0;exitX=0.995;exitY=0.566;exitDx=0;exitDy=0;exitPerimeter=0;" parent="1" source="YjwHPkgiHejPP97CCBkF-245" target="YjwHPkgiHejPP97CCBkF-254" edge="1">
          <mxGeometry width="50" height="50" relative="1" as="geometry">
            <mxPoint x="259.5" y="-643" as="sourcePoint" />
            <mxPoint x="289.5" y="-693" as="targetPoint" />
            <Array as="points">
              <mxPoint x="377.5" y="-643" />
            </Array>
          </mxGeometry>
        </mxCell>
        <mxCell id="YjwHPkgiHejPP97CCBkF-256" value="(0, N)" style="text;html=1;align=center;verticalAlign=middle;resizable=0;points=[];autosize=1;strokeColor=none;fillColor=none;fontFamily=Helvetica;fontSize=10;fontColor=default;" parent="1" vertex="1">
          <mxGeometry x="206" y="-737" width="50" height="30" as="geometry" />
        </mxCell>
        <mxCell id="YjwHPkgiHejPP97CCBkF-257" value="(1, N)" style="text;html=1;align=center;verticalAlign=middle;resizable=0;points=[];autosize=1;strokeColor=none;fillColor=none;fontFamily=Helvetica;fontSize=10;fontColor=default;" parent="1" vertex="1">
          <mxGeometry x="291.5" y="-668" width="50" height="30" as="geometry" />
        </mxCell>
        <mxCell id="YjwHPkgiHejPP97CCBkF-258" value="" style="group;pointerEvents=0;align=center;verticalAlign=top;fontFamily=Helvetica;fontSize=12;fontColor=default;fillColor=none;gradientColor=none;" parent="1" vertex="1" connectable="0">
          <mxGeometry x="426.5" y="-748" width="5" height="30" as="geometry" />
        </mxCell>
        <mxCell id="YjwHPkgiHejPP97CCBkF-259" value="" style="endArrow=none;html=1;rounded=0;fontFamily=Helvetica;fontSize=12;fontColor=default;entryX=0;entryY=0;entryDx=0;entryDy=0;" parent="YjwHPkgiHejPP97CCBkF-258" edge="1">
          <mxGeometry width="50" height="50" relative="1" as="geometry">
            <mxPoint x="2.5" y="30" as="sourcePoint" />
            <mxPoint x="2.5" y="5" as="targetPoint" />
          </mxGeometry>
        </mxCell>
        <mxCell id="YjwHPkgiHejPP97CCBkF-260" value="" style="ellipse;whiteSpace=wrap;html=1;pointerEvents=0;align=center;verticalAlign=top;fontFamily=Helvetica;fontSize=12;fontColor=default;fillColor=none;gradientColor=none;rotation=-180;" parent="YjwHPkgiHejPP97CCBkF-258" vertex="1">
          <mxGeometry width="5" height="5" as="geometry" />
        </mxCell>
        <mxCell id="YjwHPkgiHejPP97CCBkF-265" value="" style="endArrow=none;html=1;rounded=0;fontFamily=Helvetica;fontSize=12;fontColor=default;exitX=0;exitY=0.5;exitDx=0;exitDy=0;" parent="1" source="YjwHPkgiHejPP97CCBkF-254" edge="1">
          <mxGeometry width="50" height="50" relative="1" as="geometry">
            <mxPoint x="239.5" y="-643" as="sourcePoint" />
            <mxPoint x="70" y="-710" as="targetPoint" />
            <Array as="points" />
          </mxGeometry>
        </mxCell>
        <mxCell id="YjwHPkgiHejPP97CCBkF-266" value="Valore" style="text;html=1;align=center;verticalAlign=middle;resizable=0;points=[];autosize=1;strokeColor=none;fillColor=none;fontFamily=Helvetica;fontSize=10;fontColor=default;" parent="1" vertex="1">
          <mxGeometry x="403" y="-772" width="50" height="30" as="geometry" />
        </mxCell>
        <mxCell id="YjwHPkgiHejPP97CCBkF-289" value="" style="group;direction=east;rotation=90;pointerEvents=0;align=center;verticalAlign=top;fontFamily=Helvetica;fontSize=12;fontColor=default;fillColor=none;gradientColor=none;" parent="1" vertex="1" connectable="0">
          <mxGeometry x="161.5" y="-645" width="5" height="30" as="geometry" />
        </mxCell>
        <mxCell id="YjwHPkgiHejPP97CCBkF-290" value="" style="endArrow=none;html=1;rounded=0;fontFamily=Helvetica;fontSize=12;fontColor=default;entryX=0;entryY=0;entryDx=0;entryDy=0;" parent="YjwHPkgiHejPP97CCBkF-289" edge="1">
          <mxGeometry width="50" height="50" relative="1" as="geometry">
            <mxPoint x="17" y="15" as="sourcePoint" />
            <mxPoint x="-8" y="15" as="targetPoint" />
          </mxGeometry>
        </mxCell>
        <mxCell id="YjwHPkgiHejPP97CCBkF-291" value="" style="ellipse;whiteSpace=wrap;html=1;pointerEvents=0;align=center;verticalAlign=top;fontFamily=Helvetica;fontSize=12;fontColor=default;fillColor=none;gradientColor=none;rotation=90;" parent="YjwHPkgiHejPP97CCBkF-289" vertex="1">
          <mxGeometry x="-13" y="12" width="5" height="5" as="geometry" />
        </mxCell>
        <mxCell id="YjwHPkgiHejPP97CCBkF-292" value="Valore" style="text;html=1;align=center;verticalAlign=middle;resizable=0;points=[];autosize=1;strokeColor=none;fillColor=none;fontFamily=Helvetica;fontSize=10;fontColor=default;" parent="1" vertex="1">
          <mxGeometry x="105" y="-646" width="50" height="30" as="geometry" />
        </mxCell>
        <mxCell id="YjwHPkgiHejPP97CCBkF-296" value="Data" style="text;html=1;align=center;verticalAlign=middle;resizable=0;points=[];autosize=1;strokeColor=none;fillColor=none;fontFamily=Helvetica;fontSize=10;fontColor=default;" parent="1" vertex="1">
          <mxGeometry x="108.5" y="-676" width="40" height="30" as="geometry" />
        </mxCell>
        <mxCell id="YjwHPkgiHejPP97CCBkF-301" value="Evento" style="rounded=0;whiteSpace=wrap;html=1;" parent="1" vertex="1">
          <mxGeometry x="173.25" y="-521" width="80" height="30" as="geometry" />
        </mxCell>
        <mxCell id="YjwHPkgiHejPP97CCBkF-302" value="" style="group;pointerEvents=0;align=center;verticalAlign=top;fontFamily=Helvetica;fontSize=12;fontColor=default;fillColor=none;gradientColor=none;" parent="1" vertex="1" connectable="0">
          <mxGeometry x="170.75" y="-539" width="5" height="30" as="geometry" />
        </mxCell>
        <mxCell id="YjwHPkgiHejPP97CCBkF-303" value="" style="endArrow=none;html=1;rounded=0;fontFamily=Helvetica;fontSize=12;fontColor=default;entryX=0;entryY=0;entryDx=0;entryDy=0;" parent="YjwHPkgiHejPP97CCBkF-302" edge="1">
          <mxGeometry width="50" height="50" relative="1" as="geometry">
            <mxPoint x="2.5" y="30" as="sourcePoint" />
            <mxPoint x="2.5" y="5" as="targetPoint" />
          </mxGeometry>
        </mxCell>
        <mxCell id="YjwHPkgiHejPP97CCBkF-304" value="" style="ellipse;whiteSpace=wrap;html=1;pointerEvents=0;align=center;verticalAlign=top;fontFamily=Helvetica;fontSize=12;fillColor=#000000;strokeColor=#000000;fontColor=default;rotation=-180;" parent="YjwHPkgiHejPP97CCBkF-302" vertex="1">
          <mxGeometry width="5" height="5" as="geometry" />
        </mxCell>
        <mxCell id="YjwHPkgiHejPP97CCBkF-305" value="IDEvento" style="text;html=1;align=center;verticalAlign=middle;resizable=0;points=[];autosize=1;strokeColor=none;fillColor=none;fontFamily=Helvetica;fontSize=10;fontColor=default;" parent="1" vertex="1">
          <mxGeometry x="140.75" y="-562" width="60" height="30" as="geometry" />
        </mxCell>
        <mxCell id="YjwHPkgiHejPP97CCBkF-309" value="Data" style="text;html=1;align=center;verticalAlign=middle;resizable=0;points=[];autosize=1;strokeColor=none;fillColor=none;fontFamily=Helvetica;fontSize=10;fontColor=default;" parent="1" vertex="1">
          <mxGeometry x="233.25" y="-561" width="40" height="30" as="geometry" />
        </mxCell>
        <mxCell id="YjwHPkgiHejPP97CCBkF-310" value="&lt;div style=&quot;padding-top: 3px;&quot;&gt;&lt;span style=&quot;background-color: initial;&quot;&gt;Partecipaizione&lt;/span&gt;&lt;br&gt;&lt;/div&gt;" style="rhombus;whiteSpace=wrap;html=1;pointerEvents=0;align=center;verticalAlign=top;fontFamily=Helvetica;fontSize=12;fontColor=default;fillColor=none;gradientColor=none;spacingTop=2;" parent="1" vertex="1">
          <mxGeometry x="352.25" y="-588" width="127.25" height="38" as="geometry" />
        </mxCell>
        <mxCell id="YjwHPkgiHejPP97CCBkF-311" value="" style="endArrow=none;html=1;rounded=0;fontFamily=Helvetica;fontSize=12;fontColor=default;entryX=0;entryY=1;entryDx=0;entryDy=0;" parent="1" target="YjwHPkgiHejPP97CCBkF-310" edge="1">
          <mxGeometry width="50" height="50" relative="1" as="geometry">
            <mxPoint x="253.5" y="-510" as="sourcePoint" />
            <mxPoint x="388.0625" y="-559.5" as="targetPoint" />
            <Array as="points">
              <mxPoint x="384" y="-510" />
            </Array>
          </mxGeometry>
        </mxCell>
        <mxCell id="YjwHPkgiHejPP97CCBkF-312" value="(0, N)" style="text;html=1;align=center;verticalAlign=middle;resizable=0;points=[];autosize=1;strokeColor=none;fillColor=none;fontFamily=Helvetica;fontSize=10;fontColor=default;" parent="1" vertex="1">
          <mxGeometry x="205.75" y="-604" width="50" height="30" as="geometry" />
        </mxCell>
        <mxCell id="YjwHPkgiHejPP97CCBkF-313" value="(1, N)" style="text;html=1;align=center;verticalAlign=middle;resizable=0;points=[];autosize=1;strokeColor=none;fillColor=none;fontFamily=Helvetica;fontSize=10;fontColor=default;" parent="1" vertex="1">
          <mxGeometry x="291.5" y="-539" width="50" height="30" as="geometry" />
        </mxCell>
        <mxCell id="YjwHPkgiHejPP97CCBkF-314" value="" style="group;pointerEvents=0;align=center;verticalAlign=top;fontFamily=Helvetica;fontSize=12;fontColor=default;fillColor=none;gradientColor=none;" parent="1" vertex="1" connectable="0">
          <mxGeometry x="433.25" y="-612" width="5" height="30" as="geometry" />
        </mxCell>
        <mxCell id="YjwHPkgiHejPP97CCBkF-315" value="" style="endArrow=none;html=1;rounded=0;fontFamily=Helvetica;fontSize=12;fontColor=default;entryX=0;entryY=0;entryDx=0;entryDy=0;" parent="YjwHPkgiHejPP97CCBkF-314" edge="1">
          <mxGeometry width="50" height="50" relative="1" as="geometry">
            <mxPoint x="2.5" y="30" as="sourcePoint" />
            <mxPoint x="2.5" y="5" as="targetPoint" />
          </mxGeometry>
        </mxCell>
        <mxCell id="YjwHPkgiHejPP97CCBkF-316" value="" style="ellipse;whiteSpace=wrap;html=1;pointerEvents=0;align=center;verticalAlign=top;fontFamily=Helvetica;fontSize=12;fontColor=default;fillColor=none;gradientColor=none;rotation=-180;" parent="YjwHPkgiHejPP97CCBkF-314" vertex="1">
          <mxGeometry width="5" height="5" as="geometry" />
        </mxCell>
        <mxCell id="YjwHPkgiHejPP97CCBkF-320" value="Data" style="text;html=1;align=center;verticalAlign=middle;resizable=0;points=[];autosize=1;strokeColor=none;fillColor=none;fontFamily=Helvetica;fontSize=10;fontColor=default;" parent="1" vertex="1">
          <mxGeometry x="436" y="-543" width="40" height="30" as="geometry" />
        </mxCell>
        <mxCell id="YjwHPkgiHejPP97CCBkF-321" value="" style="group;direction=east;rotation=90;pointerEvents=0;align=center;verticalAlign=top;fontFamily=Helvetica;fontSize=12;fontColor=default;fillColor=none;gradientColor=none;" parent="1" vertex="1" connectable="0">
          <mxGeometry x="161.25" y="-506" width="5" height="30" as="geometry" />
        </mxCell>
        <mxCell id="YjwHPkgiHejPP97CCBkF-322" value="" style="endArrow=none;html=1;rounded=0;fontFamily=Helvetica;fontSize=12;fontColor=default;entryX=0;entryY=0;entryDx=0;entryDy=0;" parent="YjwHPkgiHejPP97CCBkF-321" edge="1">
          <mxGeometry width="50" height="50" relative="1" as="geometry">
            <mxPoint x="17" y="15" as="sourcePoint" />
            <mxPoint x="-8" y="15" as="targetPoint" />
          </mxGeometry>
        </mxCell>
        <mxCell id="YjwHPkgiHejPP97CCBkF-323" value="" style="ellipse;whiteSpace=wrap;html=1;pointerEvents=0;align=center;verticalAlign=top;fontFamily=Helvetica;fontSize=12;fontColor=default;fillColor=none;gradientColor=none;rotation=90;" parent="YjwHPkgiHejPP97CCBkF-321" vertex="1">
          <mxGeometry x="-13" y="12" width="5" height="5" as="geometry" />
        </mxCell>
        <mxCell id="YjwHPkgiHejPP97CCBkF-324" value="Nome" style="text;html=1;align=center;verticalAlign=middle;resizable=0;points=[];autosize=1;strokeColor=none;fillColor=none;fontFamily=Helvetica;fontSize=10;fontColor=default;" parent="1" vertex="1">
          <mxGeometry x="106.75" y="-507" width="50" height="30" as="geometry" />
        </mxCell>
        <mxCell id="YjwHPkgiHejPP97CCBkF-328" value="" style="endArrow=none;html=1;rounded=0;fontFamily=Helvetica;fontSize=12;fontColor=default;exitX=0;exitY=0;exitDx=0;exitDy=0;" parent="1" source="YjwHPkgiHejPP97CCBkF-310" edge="1">
          <mxGeometry width="50" height="50" relative="1" as="geometry">
            <mxPoint x="239.25" y="-504" as="sourcePoint" />
            <mxPoint x="69.25" y="-578" as="targetPoint" />
            <Array as="points">
              <mxPoint x="69.25" y="-578" />
            </Array>
          </mxGeometry>
        </mxCell>
        <mxCell id="YjwHPkgiHejPP97CCBkF-329" value="Segnalazioni" style="text;html=1;align=center;verticalAlign=middle;resizable=0;points=[];autosize=1;strokeColor=none;fillColor=none;fontFamily=Helvetica;fontSize=10;fontColor=default;" parent="1" vertex="1">
          <mxGeometry x="387.75" y="-633" width="80" height="30" as="geometry" />
        </mxCell>
        <mxCell id="YjwHPkgiHejPP97CCBkF-330" value="" style="group;direction=east;rotation=90;pointerEvents=0;align=center;verticalAlign=top;fontFamily=Helvetica;fontSize=12;fontColor=default;fillColor=none;gradientColor=none;" parent="1" vertex="1" connectable="0">
          <mxGeometry x="160.5" y="-536" width="5" height="30" as="geometry" />
        </mxCell>
        <mxCell id="YjwHPkgiHejPP97CCBkF-331" value="" style="endArrow=none;html=1;rounded=0;fontFamily=Helvetica;fontSize=12;fontColor=default;entryX=0;entryY=0;entryDx=0;entryDy=0;" parent="YjwHPkgiHejPP97CCBkF-330" edge="1">
          <mxGeometry width="50" height="50" relative="1" as="geometry">
            <mxPoint x="17" y="15" as="sourcePoint" />
            <mxPoint x="-8" y="15" as="targetPoint" />
          </mxGeometry>
        </mxCell>
        <mxCell id="YjwHPkgiHejPP97CCBkF-332" value="" style="ellipse;whiteSpace=wrap;html=1;pointerEvents=0;align=center;verticalAlign=top;fontFamily=Helvetica;fontSize=12;fontColor=default;fillColor=none;gradientColor=none;rotation=90;" parent="YjwHPkgiHejPP97CCBkF-330" vertex="1">
          <mxGeometry x="-13" y="12" width="5" height="5" as="geometry" />
        </mxCell>
        <mxCell id="YjwHPkgiHejPP97CCBkF-333" value="NPosti" style="text;html=1;align=center;verticalAlign=middle;resizable=0;points=[];autosize=1;strokeColor=none;fillColor=none;fontFamily=Helvetica;fontSize=10;fontColor=default;" parent="1" vertex="1">
          <mxGeometry x="104.5" y="-537" width="50" height="30" as="geometry" />
        </mxCell>
        <mxCell id="YjwHPkgiHejPP97CCBkF-334" value="" style="group;pointerEvents=0;align=center;verticalAlign=top;fontFamily=Helvetica;fontSize=12;fontColor=default;fillColor=none;gradientColor=none;" parent="1" vertex="1" connectable="0">
          <mxGeometry x="210" y="-540" width="5" height="20" as="geometry" />
        </mxCell>
        <mxCell id="YjwHPkgiHejPP97CCBkF-335" value="" style="endArrow=none;html=1;rounded=0;fontFamily=Helvetica;fontSize=12;fontColor=default;entryX=0;entryY=0;entryDx=0;entryDy=0;" parent="YjwHPkgiHejPP97CCBkF-334" edge="1">
          <mxGeometry width="50" height="50" relative="1" as="geometry">
            <mxPoint x="2.5" y="20" as="sourcePoint" />
            <mxPoint x="2.5" y="3.333333333333333" as="targetPoint" />
          </mxGeometry>
        </mxCell>
        <mxCell id="YjwHPkgiHejPP97CCBkF-336" value="" style="ellipse;whiteSpace=wrap;html=1;pointerEvents=0;align=center;verticalAlign=top;fontFamily=Helvetica;fontSize=12;fontColor=default;fillColor=none;gradientColor=none;rotation=-180;" parent="YjwHPkgiHejPP97CCBkF-334" vertex="1">
          <mxGeometry width="5" height="3.333333333333333" as="geometry" />
        </mxCell>
        <mxCell id="YjwHPkgiHejPP97CCBkF-337" value="Luogo" style="text;html=1;align=center;verticalAlign=middle;resizable=0;points=[];autosize=1;strokeColor=none;fillColor=none;fontFamily=Helvetica;fontSize=10;fontColor=default;" parent="1" vertex="1">
          <mxGeometry x="187.5" y="-562" width="50" height="30" as="geometry" />
        </mxCell>
        <mxCell id="YjwHPkgiHejPP97CCBkF-338" value="" style="group;direction=east;rotation=90;pointerEvents=0;align=center;verticalAlign=top;fontFamily=Helvetica;fontSize=12;fontColor=default;fillColor=none;gradientColor=none;" parent="1" vertex="1" connectable="0">
          <mxGeometry x="139.5" y="-521" width="5" height="30" as="geometry" />
        </mxCell>
        <mxCell id="YjwHPkgiHejPP97CCBkF-339" value="" style="endArrow=none;html=1;rounded=0;fontFamily=Helvetica;fontSize=12;fontColor=default;entryX=0;entryY=0;entryDx=0;entryDy=0;" parent="YjwHPkgiHejPP97CCBkF-338" edge="1">
          <mxGeometry width="50" height="50" relative="1" as="geometry">
            <mxPoint x="17" y="15" as="sourcePoint" />
            <mxPoint x="-8" y="15" as="targetPoint" />
          </mxGeometry>
        </mxCell>
        <mxCell id="YjwHPkgiHejPP97CCBkF-340" value="" style="ellipse;whiteSpace=wrap;html=1;pointerEvents=0;align=center;verticalAlign=top;fontFamily=Helvetica;fontSize=12;fontColor=default;fillColor=none;gradientColor=none;rotation=90;" parent="YjwHPkgiHejPP97CCBkF-338" vertex="1">
          <mxGeometry x="-13" y="12" width="5" height="5" as="geometry" />
        </mxCell>
        <mxCell id="YjwHPkgiHejPP97CCBkF-341" value="Descrizione" style="text;html=1;align=center;verticalAlign=middle;resizable=0;points=[];autosize=1;strokeColor=none;fillColor=none;fontFamily=Helvetica;fontSize=10;fontColor=default;" parent="1" vertex="1">
          <mxGeometry x="58.5" y="-522" width="80" height="30" as="geometry" />
        </mxCell>
        <mxCell id="YjwHPkgiHejPP97CCBkF-342" value="" style="endArrow=none;html=1;rounded=0;fontFamily=Helvetica;fontSize=12;fontColor=default;entryX=0;entryY=0.5;entryDx=0;entryDy=0;" parent="1" target="YjwHPkgiHejPP97CCBkF-301" edge="1">
          <mxGeometry width="50" height="50" relative="1" as="geometry">
            <mxPoint x="155.5" y="-506" as="sourcePoint" />
            <mxPoint x="169.25" y="-506" as="targetPoint" />
          </mxGeometry>
        </mxCell>
        <mxCell id="YjwHPkgiHejPP97CCBkF-343" value="" style="endArrow=none;html=1;rounded=0;fontFamily=Helvetica;fontSize=12;fontColor=default;exitX=1;exitY=0.5;exitDx=0;exitDy=0;entryX=0.609;entryY=1.002;entryDx=0;entryDy=0;entryPerimeter=0;" parent="1" source="YjwHPkgiHejPP97CCBkF-310" target="f8H7bPCvHPPE9_fxp1JB-89" edge="1">
          <mxGeometry width="50" height="50" relative="1" as="geometry">
            <mxPoint x="479.5" y="-580" as="sourcePoint" />
            <mxPoint x="769.5" y="-730" as="targetPoint" />
            <Array as="points">
              <mxPoint x="769.5" y="-570" />
            </Array>
          </mxGeometry>
        </mxCell>
        <mxCell id="YjwHPkgiHejPP97CCBkF-345" value="(0, N)" style="text;html=1;align=center;verticalAlign=middle;resizable=0;points=[];autosize=1;strokeColor=none;fillColor=none;fontFamily=Helvetica;fontSize=10;fontColor=default;" parent="1" vertex="1">
          <mxGeometry x="493" y="-594" width="50" height="30" as="geometry" />
        </mxCell>
        <mxCell id="YjwHPkgiHejPP97CCBkF-349" value="Feedback" style="rounded=0;whiteSpace=wrap;html=1;" parent="1" vertex="1">
          <mxGeometry x="175.25" y="-297" width="80" height="30" as="geometry" />
        </mxCell>
        <mxCell id="YjwHPkgiHejPP97CCBkF-350" value="" style="group;pointerEvents=0;align=center;verticalAlign=top;fontFamily=Helvetica;fontSize=12;fontColor=default;fillColor=none;gradientColor=none;" parent="1" vertex="1" connectable="0">
          <mxGeometry x="172.75" y="-315" width="5" height="30" as="geometry" />
        </mxCell>
        <mxCell id="YjwHPkgiHejPP97CCBkF-351" value="" style="endArrow=none;html=1;rounded=0;fontFamily=Helvetica;fontSize=12;fontColor=default;entryX=0;entryY=0;entryDx=0;entryDy=0;" parent="YjwHPkgiHejPP97CCBkF-350" edge="1">
          <mxGeometry width="50" height="50" relative="1" as="geometry">
            <mxPoint x="2.5" y="30" as="sourcePoint" />
            <mxPoint x="2.5" y="5" as="targetPoint" />
          </mxGeometry>
        </mxCell>
        <mxCell id="YjwHPkgiHejPP97CCBkF-352" value="" style="ellipse;whiteSpace=wrap;html=1;pointerEvents=0;align=center;verticalAlign=top;fontFamily=Helvetica;fontSize=12;fillColor=#000000;strokeColor=#000000;fontColor=default;rotation=-180;" parent="YjwHPkgiHejPP97CCBkF-350" vertex="1">
          <mxGeometry width="5" height="5" as="geometry" />
        </mxCell>
        <mxCell id="YjwHPkgiHejPP97CCBkF-357" value="&lt;span style=&quot;font-size: 10px;&quot;&gt;Segnalazione&lt;/span&gt;" style="rhombus;whiteSpace=wrap;html=1;pointerEvents=0;align=center;verticalAlign=top;fontFamily=Helvetica;fontSize=12;fontColor=default;fillColor=none;gradientColor=none;spacing=0;spacingTop=12;" parent="1" vertex="1">
          <mxGeometry x="354.25" y="-373" width="106.75" height="51" as="geometry" />
        </mxCell>
        <mxCell id="YjwHPkgiHejPP97CCBkF-358" value="" style="endArrow=none;html=1;rounded=0;fontFamily=Helvetica;fontSize=12;fontColor=default;entryX=0;entryY=1;entryDx=0;entryDy=0;exitX=1;exitY=0.567;exitDx=0;exitDy=0;exitPerimeter=0;" parent="1" source="YjwHPkgiHejPP97CCBkF-349" target="YjwHPkgiHejPP97CCBkF-357" edge="1">
          <mxGeometry width="50" height="50" relative="1" as="geometry">
            <mxPoint x="252.8499999999999" y="-280.02" as="sourcePoint" />
            <mxPoint x="378.9375000000001" y="-334.75" as="targetPoint" />
            <Array as="points">
              <mxPoint x="381" y="-280" />
            </Array>
          </mxGeometry>
        </mxCell>
        <mxCell id="YjwHPkgiHejPP97CCBkF-359" value="(0, N)" style="text;html=1;align=center;verticalAlign=middle;resizable=0;points=[];autosize=1;strokeColor=none;fillColor=none;fontFamily=Helvetica;fontSize=10;fontColor=default;" parent="1" vertex="1">
          <mxGeometry x="206.75" y="-383" width="50" height="30" as="geometry" />
        </mxCell>
        <mxCell id="YjwHPkgiHejPP97CCBkF-360" value="(1,N)" style="text;html=1;align=center;verticalAlign=middle;resizable=0;points=[];autosize=1;strokeColor=none;fillColor=none;fontFamily=Helvetica;fontSize=10;fontColor=default;" parent="1" vertex="1">
          <mxGeometry x="293.62" y="-306" width="50" height="30" as="geometry" />
        </mxCell>
        <mxCell id="YjwHPkgiHejPP97CCBkF-369" value="" style="endArrow=none;html=1;rounded=0;fontFamily=Helvetica;fontSize=12;fontColor=default;exitX=0;exitY=0;exitDx=0;exitDy=0;" parent="1" edge="1">
          <mxGeometry width="50" height="50" relative="1" as="geometry">
            <mxPoint x="379.9375" y="-360.25" as="sourcePoint" />
            <mxPoint x="69" y="-360" as="targetPoint" />
            <Array as="points" />
          </mxGeometry>
        </mxCell>
        <mxCell id="YjwHPkgiHejPP97CCBkF-370" value="IDFeedback" style="text;html=1;align=center;verticalAlign=middle;resizable=0;points=[];autosize=1;strokeColor=none;fillColor=none;fontFamily=Helvetica;fontSize=10;fontColor=default;" parent="1" vertex="1">
          <mxGeometry x="132.75" y="-337" width="80" height="30" as="geometry" />
        </mxCell>
        <mxCell id="YjwHPkgiHejPP97CCBkF-371" value="" style="group" parent="1" vertex="1" connectable="0">
          <mxGeometry x="172.75" y="-276" width="5" height="30" as="geometry" />
        </mxCell>
        <mxCell id="YjwHPkgiHejPP97CCBkF-372" value="" style="endArrow=none;html=1;rounded=0;fontFamily=Helvetica;fontSize=12;fontColor=default;entryX=0;entryY=0;entryDx=0;entryDy=0;" parent="YjwHPkgiHejPP97CCBkF-371" edge="1">
          <mxGeometry width="50" height="50" relative="1" as="geometry">
            <mxPoint x="2.5" as="sourcePoint" />
            <mxPoint x="2.5" y="25" as="targetPoint" />
          </mxGeometry>
        </mxCell>
        <mxCell id="YjwHPkgiHejPP97CCBkF-373" value="" style="ellipse;whiteSpace=wrap;html=1;pointerEvents=0;align=center;verticalAlign=top;fontFamily=Helvetica;fontSize=12;fontColor=default;fillColor=none;gradientColor=none;rotation=0;" parent="YjwHPkgiHejPP97CCBkF-371" vertex="1">
          <mxGeometry y="25" width="5" height="5" as="geometry" />
        </mxCell>
        <mxCell id="YjwHPkgiHejPP97CCBkF-383" value="(0, N)" style="text;html=1;align=center;verticalAlign=middle;resizable=0;points=[];autosize=1;strokeColor=none;fillColor=none;fontFamily=Helvetica;fontSize=10;fontColor=default;" parent="1" vertex="1">
          <mxGeometry x="494" y="-374.5" width="50" height="30" as="geometry" />
        </mxCell>
        <mxCell id="YjwHPkgiHejPP97CCBkF-384" value="" style="endArrow=none;html=1;rounded=0;fontFamily=Helvetica;fontSize=12;fontColor=default;exitX=1;exitY=0.5;exitDx=0;exitDy=0;" parent="1" source="YjwHPkgiHejPP97CCBkF-357" edge="1">
          <mxGeometry width="50" height="50" relative="1" as="geometry">
            <mxPoint x="460" y="-342.5" as="sourcePoint" />
            <mxPoint x="769.5" y="-572" as="targetPoint" />
            <Array as="points">
              <mxPoint x="770" y="-347" />
            </Array>
          </mxGeometry>
        </mxCell>
        <mxCell id="f8H7bPCvHPPE9_fxp1JB-1" value="Operatore" style="rounded=0;whiteSpace=wrap;html=1;" parent="1" vertex="1">
          <mxGeometry x="559.12" y="-777" width="80" height="30" as="geometry" />
        </mxCell>
        <mxCell id="f8H7bPCvHPPE9_fxp1JB-6" value="" style="group" parent="1" vertex="1" connectable="0">
          <mxGeometry x="559.12" y="-807" width="10.379999999999995" height="30" as="geometry" />
        </mxCell>
        <mxCell id="f8H7bPCvHPPE9_fxp1JB-7" value="" style="endArrow=none;html=1;rounded=0;fontFamily=Helvetica;fontSize=12;fontColor=default;entryX=0;entryY=0;entryDx=0;entryDy=0;" parent="f8H7bPCvHPPE9_fxp1JB-6" edge="1">
          <mxGeometry width="50" height="50" relative="1" as="geometry">
            <mxPoint x="2.5" y="30" as="sourcePoint" />
            <mxPoint x="2.5" y="5" as="targetPoint" />
          </mxGeometry>
        </mxCell>
        <mxCell id="f8H7bPCvHPPE9_fxp1JB-8" value="" style="ellipse;whiteSpace=wrap;html=1;pointerEvents=0;align=center;verticalAlign=top;fontFamily=Helvetica;fontSize=12;fontColor=default;fillColor=none;gradientColor=none;rotation=-180;" parent="f8H7bPCvHPPE9_fxp1JB-6" vertex="1">
          <mxGeometry width="5" height="5" as="geometry" />
        </mxCell>
        <mxCell id="f8H7bPCvHPPE9_fxp1JB-9" value="Tipo" style="text;html=1;align=center;verticalAlign=middle;resizable=0;points=[];autosize=1;strokeColor=none;fillColor=none;fontFamily=Helvetica;fontSize=10;fontColor=default;" parent="f8H7bPCvHPPE9_fxp1JB-6" vertex="1">
          <mxGeometry x="-29.620000000000005" y="-22" width="40" height="30" as="geometry" />
        </mxCell>
        <mxCell id="f8H7bPCvHPPE9_fxp1JB-10" value="" style="endArrow=none;html=1;rounded=0;fontFamily=Helvetica;fontSize=12;fontColor=default;exitX=1;exitY=0.5;exitDx=0;exitDy=0;" parent="1" source="f8H7bPCvHPPE9_fxp1JB-1" target="f8H7bPCvHPPE9_fxp1JB-30" edge="1">
          <mxGeometry width="50" height="50" relative="1" as="geometry">
            <mxPoint x="653.62" y="-843" as="sourcePoint" />
            <mxPoint x="703.62" y="-893" as="targetPoint" />
          </mxGeometry>
        </mxCell>
        <mxCell id="f8H7bPCvHPPE9_fxp1JB-11" value="(0, 1)" style="text;html=1;align=center;verticalAlign=middle;resizable=0;points=[];autosize=1;strokeColor=none;fillColor=none;fontFamily=Helvetica;fontSize=10;fontColor=default;" parent="1" vertex="1">
          <mxGeometry x="535.5" y="-891" width="50" height="30" as="geometry" />
        </mxCell>
        <mxCell id="f8H7bPCvHPPE9_fxp1JB-12" value="Email" style="text;html=1;align=center;verticalAlign=middle;resizable=0;points=[];autosize=1;strokeColor=none;fillColor=none;fontFamily=Helvetica;fontSize=10;fontColor=default;" parent="1" vertex="1">
          <mxGeometry x="586" y="-833" width="50" height="30" as="geometry" />
        </mxCell>
        <mxCell id="f8H7bPCvHPPE9_fxp1JB-13" value="DataInizio" style="text;html=1;align=center;verticalAlign=middle;resizable=0;points=[];autosize=1;strokeColor=none;fillColor=none;fontFamily=Helvetica;fontSize=10;fontColor=default;" parent="1" vertex="1">
          <mxGeometry x="571.12" y="-940" width="70" height="30" as="geometry" />
        </mxCell>
        <mxCell id="f8H7bPCvHPPE9_fxp1JB-14" value="" style="group;pointerEvents=0;align=center;verticalAlign=top;fontFamily=Helvetica;fontSize=12;fontColor=default;fillColor=none;gradientColor=none;" parent="1" vertex="1" connectable="0">
          <mxGeometry x="613.62" y="-853" width="5" height="30" as="geometry" />
        </mxCell>
        <mxCell id="f8H7bPCvHPPE9_fxp1JB-15" value="" style="endArrow=none;html=1;rounded=0;fontFamily=Helvetica;fontSize=12;fontColor=default;entryX=0;entryY=0;entryDx=0;entryDy=0;" parent="f8H7bPCvHPPE9_fxp1JB-14" edge="1">
          <mxGeometry width="50" height="50" relative="1" as="geometry">
            <mxPoint x="2.5" as="sourcePoint" />
            <mxPoint x="2.5" y="25" as="targetPoint" />
          </mxGeometry>
        </mxCell>
        <mxCell id="f8H7bPCvHPPE9_fxp1JB-16" value="" style="ellipse;whiteSpace=wrap;html=1;pointerEvents=0;align=center;verticalAlign=top;fontFamily=Helvetica;fontSize=12;fontColor=default;fillColor=none;gradientColor=none;" parent="f8H7bPCvHPPE9_fxp1JB-14" vertex="1">
          <mxGeometry y="25" width="5" height="5" as="geometry" />
        </mxCell>
        <mxCell id="f8H7bPCvHPPE9_fxp1JB-17" value="" style="group" parent="1" vertex="1" connectable="0">
          <mxGeometry x="664.62" y="-856" width="5" height="30" as="geometry" />
        </mxCell>
        <mxCell id="f8H7bPCvHPPE9_fxp1JB-18" value="" style="endArrow=none;html=1;rounded=0;fontFamily=Helvetica;fontSize=12;fontColor=default;entryX=0;entryY=0;entryDx=0;entryDy=0;" parent="f8H7bPCvHPPE9_fxp1JB-17" edge="1">
          <mxGeometry width="50" height="50" relative="1" as="geometry">
            <mxPoint x="2.5" as="sourcePoint" />
            <mxPoint x="2.5" y="25" as="targetPoint" />
          </mxGeometry>
        </mxCell>
        <mxCell id="f8H7bPCvHPPE9_fxp1JB-19" value="" style="ellipse;whiteSpace=wrap;html=1;pointerEvents=0;align=center;verticalAlign=top;fontFamily=Helvetica;fontSize=12;fontColor=default;fillColor=none;gradientColor=none;rotation=0;" parent="f8H7bPCvHPPE9_fxp1JB-17" vertex="1">
          <mxGeometry y="25" width="5" height="5" as="geometry" />
        </mxCell>
        <mxCell id="f8H7bPCvHPPE9_fxp1JB-20" value="" style="group;pointerEvents=0;align=center;verticalAlign=top;fontFamily=Helvetica;fontSize=12;fontColor=default;fillColor=none;gradientColor=none;" parent="1" vertex="1" connectable="0">
          <mxGeometry x="622.62" y="-917" width="5" height="30" as="geometry" />
        </mxCell>
        <mxCell id="f8H7bPCvHPPE9_fxp1JB-21" value="" style="endArrow=none;html=1;rounded=0;fontFamily=Helvetica;fontSize=12;fontColor=default;entryX=0;entryY=0;entryDx=0;entryDy=0;" parent="f8H7bPCvHPPE9_fxp1JB-20" edge="1">
          <mxGeometry width="50" height="50" relative="1" as="geometry">
            <mxPoint x="2.5" y="30" as="sourcePoint" />
            <mxPoint x="2.5" y="5" as="targetPoint" />
          </mxGeometry>
        </mxCell>
        <mxCell id="f8H7bPCvHPPE9_fxp1JB-22" value="" style="ellipse;whiteSpace=wrap;html=1;pointerEvents=0;align=center;verticalAlign=top;fontFamily=Helvetica;fontSize=12;fontColor=default;fillColor=none;gradientColor=none;rotation=-180;" parent="f8H7bPCvHPPE9_fxp1JB-20" vertex="1">
          <mxGeometry width="5" height="5" as="geometry" />
        </mxCell>
        <mxCell id="f8H7bPCvHPPE9_fxp1JB-23" value="" style="group;pointerEvents=0;align=center;verticalAlign=top;fontFamily=Helvetica;fontSize=12;fontColor=default;fillColor=none;gradientColor=none;" parent="1" vertex="1" connectable="0">
          <mxGeometry x="653.62" y="-915" width="5" height="30" as="geometry" />
        </mxCell>
        <mxCell id="f8H7bPCvHPPE9_fxp1JB-24" value="" style="endArrow=none;html=1;rounded=0;fontFamily=Helvetica;fontSize=12;fontColor=default;entryX=0;entryY=0;entryDx=0;entryDy=0;" parent="f8H7bPCvHPPE9_fxp1JB-23" edge="1">
          <mxGeometry width="50" height="50" relative="1" as="geometry">
            <mxPoint x="2.5" y="30" as="sourcePoint" />
            <mxPoint x="2.5" y="5" as="targetPoint" />
          </mxGeometry>
        </mxCell>
        <mxCell id="f8H7bPCvHPPE9_fxp1JB-25" value="" style="ellipse;whiteSpace=wrap;html=1;pointerEvents=0;align=center;verticalAlign=top;fontFamily=Helvetica;fontSize=12;fontColor=default;fillColor=none;gradientColor=none;rotation=-180;" parent="f8H7bPCvHPPE9_fxp1JB-23" vertex="1">
          <mxGeometry width="5" height="5" as="geometry" />
        </mxCell>
        <mxCell id="f8H7bPCvHPPE9_fxp1JB-26" value="" style="group;rotation=-90;pointerEvents=0;align=center;verticalAlign=top;fontFamily=Helvetica;fontSize=12;fontColor=default;fillColor=none;gradientColor=none;" parent="f8H7bPCvHPPE9_fxp1JB-23" vertex="1" connectable="0">
          <mxGeometry width="5" height="30" as="geometry" />
        </mxCell>
        <mxCell id="f8H7bPCvHPPE9_fxp1JB-27" value="" style="endArrow=none;html=1;rounded=0;fontFamily=Helvetica;fontSize=12;fontColor=default;entryX=0;entryY=0;entryDx=0;entryDy=0;" parent="f8H7bPCvHPPE9_fxp1JB-26" edge="1">
          <mxGeometry width="50" height="50" relative="1" as="geometry">
            <mxPoint x="-12" y="15" as="sourcePoint" />
            <mxPoint x="13" y="15" as="targetPoint" />
          </mxGeometry>
        </mxCell>
        <mxCell id="f8H7bPCvHPPE9_fxp1JB-28" value="" style="ellipse;whiteSpace=wrap;html=1;pointerEvents=0;align=center;verticalAlign=top;fontFamily=Helvetica;fontSize=12;fillColor=#000000;strokeColor=#000000;rotation=-90;fontColor=default;" parent="f8H7bPCvHPPE9_fxp1JB-26" vertex="1">
          <mxGeometry x="13" y="13" width="5" height="5" as="geometry" />
        </mxCell>
        <mxCell id="f8H7bPCvHPPE9_fxp1JB-29" value="" style="endArrow=none;html=1;rounded=0;fontFamily=Helvetica;fontSize=12;fontColor=default;" parent="1" edge="1">
          <mxGeometry width="50" height="50" relative="1" as="geometry">
            <mxPoint x="613.62" y="-900" as="sourcePoint" />
            <mxPoint x="643.62" y="-900" as="targetPoint" />
          </mxGeometry>
        </mxCell>
        <mxCell id="f8H7bPCvHPPE9_fxp1JB-30" value="Professione" style="rhombus;whiteSpace=wrap;html=1;" parent="1" vertex="1">
          <mxGeometry x="583.62" y="-893" width="110" height="50" as="geometry" />
        </mxCell>
        <mxCell id="f8H7bPCvHPPE9_fxp1JB-31" value="Ruolo" style="text;html=1;align=center;verticalAlign=middle;resizable=0;points=[];autosize=1;strokeColor=none;fillColor=none;fontFamily=Helvetica;fontSize=10;fontColor=default;" parent="1" vertex="1">
          <mxGeometry x="642.12" y="-833" width="50" height="30" as="geometry" />
        </mxCell>
        <mxCell id="f8H7bPCvHPPE9_fxp1JB-32" value="(1, 1)" style="text;html=1;align=center;verticalAlign=middle;resizable=0;points=[];autosize=1;strokeColor=none;fillColor=none;fontFamily=Helvetica;fontSize=10;fontColor=default;" parent="1" vertex="1">
          <mxGeometry x="627.62" y="-798" width="50" height="30" as="geometry" />
        </mxCell>
        <mxCell id="f8H7bPCvHPPE9_fxp1JB-33" value="DataFine" style="text;html=1;align=center;verticalAlign=middle;resizable=0;points=[];autosize=1;strokeColor=none;fillColor=none;fontFamily=Helvetica;fontSize=10;fontColor=default;" parent="1" vertex="1">
          <mxGeometry x="633.12" y="-940" width="60" height="30" as="geometry" />
        </mxCell>
        <mxCell id="f8H7bPCvHPPE9_fxp1JB-34" value="Operatore" style="rounded=0;whiteSpace=wrap;html=1;pointerEvents=0;align=center;verticalAlign=middle;fontFamily=Helvetica;fontSize=12;fontColor=default;fillColor=none;gradientColor=none;" parent="1" vertex="1">
          <mxGeometry x="1091" y="-213.5" width="66" height="20" as="geometry" />
        </mxCell>
        <mxCell id="f8H7bPCvHPPE9_fxp1JB-35" value="" style="shape=partialRectangle;whiteSpace=wrap;html=1;bottom=1;right=1;left=1;top=0;fillColor=none;routingCenterX=-0.5;pointerEvents=0;align=center;verticalAlign=top;fontFamily=Helvetica;fontSize=12;fontColor=default;rotation=-180;" parent="1" vertex="1">
          <mxGeometry x="1121.25" y="-244.5" width="125" height="30" as="geometry" />
        </mxCell>
        <mxCell id="f8H7bPCvHPPE9_fxp1JB-44" value="" style="group" parent="1" vertex="1" connectable="0">
          <mxGeometry x="1088.5" y="-206.5" width="5" height="30" as="geometry" />
        </mxCell>
        <mxCell id="f8H7bPCvHPPE9_fxp1JB-45" value="" style="endArrow=none;html=1;rounded=0;fontFamily=Helvetica;fontSize=12;fontColor=default;entryX=0;entryY=0;entryDx=0;entryDy=0;" parent="f8H7bPCvHPPE9_fxp1JB-44" edge="1">
          <mxGeometry width="50" height="50" relative="1" as="geometry">
            <mxPoint x="2.5" as="sourcePoint" />
            <mxPoint x="2.5" y="25" as="targetPoint" />
          </mxGeometry>
        </mxCell>
        <mxCell id="f8H7bPCvHPPE9_fxp1JB-46" value="" style="ellipse;whiteSpace=wrap;html=1;pointerEvents=0;align=center;verticalAlign=top;fontFamily=Helvetica;fontSize=12;fontColor=default;fillColor=none;gradientColor=none;rotation=0;" parent="f8H7bPCvHPPE9_fxp1JB-44" vertex="1">
          <mxGeometry y="25" width="5" height="5" as="geometry" />
        </mxCell>
        <mxCell id="f8H7bPCvHPPE9_fxp1JB-47" value="Tipo" style="text;html=1;align=center;verticalAlign=middle;resizable=0;points=[];autosize=1;strokeColor=none;fillColor=none;fontFamily=Helvetica;fontSize=10;fontColor=default;" parent="1" vertex="1">
          <mxGeometry x="1070" y="-182.5" width="40" height="30" as="geometry" />
        </mxCell>
        <mxCell id="f8H7bPCvHPPE9_fxp1JB-48" value="Utente" style="rounded=0;whiteSpace=wrap;html=1;" parent="1" vertex="1">
          <mxGeometry x="764" y="-1082" width="110" height="30" as="geometry" />
        </mxCell>
        <mxCell id="f8H7bPCvHPPE9_fxp1JB-49" value="IDUtente" style="text;html=1;align=center;verticalAlign=middle;resizable=0;points=[];autosize=1;strokeColor=none;fillColor=none;fontFamily=Helvetica;fontSize=12;fontColor=default;" parent="1" vertex="1">
          <mxGeometry x="826" y="-1135" width="70" height="30" as="geometry" />
        </mxCell>
        <mxCell id="f8H7bPCvHPPE9_fxp1JB-50" value="" style="group;pointerEvents=0;align=center;verticalAlign=top;fontFamily=Helvetica;fontSize=12;fontColor=default;fillColor=none;gradientColor=none;" parent="1" vertex="1" connectable="0">
          <mxGeometry x="857" y="-1112" width="5" height="30" as="geometry" />
        </mxCell>
        <mxCell id="f8H7bPCvHPPE9_fxp1JB-51" value="" style="endArrow=none;html=1;rounded=0;fontFamily=Helvetica;fontSize=12;fontColor=default;entryX=0;entryY=0;entryDx=0;entryDy=0;" parent="f8H7bPCvHPPE9_fxp1JB-50" edge="1">
          <mxGeometry width="50" height="50" relative="1" as="geometry">
            <mxPoint x="2.5" y="30" as="sourcePoint" />
            <mxPoint x="2.5" y="5" as="targetPoint" />
          </mxGeometry>
        </mxCell>
        <mxCell id="f8H7bPCvHPPE9_fxp1JB-52" value="" style="ellipse;whiteSpace=wrap;html=1;pointerEvents=0;align=center;verticalAlign=top;fontFamily=Helvetica;fontSize=12;fontColor=default;fillColor=none;gradientColor=none;rotation=-180;" parent="f8H7bPCvHPPE9_fxp1JB-50" vertex="1">
          <mxGeometry width="5" height="5" as="geometry" />
        </mxCell>
        <mxCell id="fs3QnoUxzOffLrFysb8_-25" value="" style="ellipse;whiteSpace=wrap;html=1;pointerEvents=0;align=center;verticalAlign=top;fontFamily=Helvetica;fontSize=12;fillColor=#000000;strokeColor=#000000;rotation=-90;fontColor=default;" parent="f8H7bPCvHPPE9_fxp1JB-50" vertex="1">
          <mxGeometry width="5" height="5" as="geometry" />
        </mxCell>
        <mxCell id="f8H7bPCvHPPE9_fxp1JB-54" value="DataNascita" style="text;html=1;align=center;verticalAlign=middle;resizable=0;points=[];autosize=1;strokeColor=none;fillColor=none;fontFamily=Helvetica;fontSize=10;fontColor=default;" parent="1" vertex="1">
          <mxGeometry x="704.25" y="-1133" width="80" height="30" as="geometry" />
        </mxCell>
        <mxCell id="f8H7bPCvHPPE9_fxp1JB-55" value="Telefono" style="text;html=1;align=center;verticalAlign=middle;resizable=0;points=[];autosize=1;strokeColor=none;fillColor=none;fontFamily=Helvetica;fontSize=10;fontColor=default;" parent="1" vertex="1">
          <mxGeometry x="680.5" y="-1068" width="60" height="30" as="geometry" />
        </mxCell>
        <mxCell id="f8H7bPCvHPPE9_fxp1JB-59" value="" style="group;direction=east;rotation=90;pointerEvents=0;align=center;verticalAlign=top;fontFamily=Helvetica;fontSize=12;fontColor=default;fillColor=none;gradientColor=none;" parent="1" vertex="1" connectable="0">
          <mxGeometry x="746.5" y="-1067" width="5" height="30" as="geometry" />
        </mxCell>
        <mxCell id="f8H7bPCvHPPE9_fxp1JB-60" value="" style="endArrow=none;html=1;rounded=0;fontFamily=Helvetica;fontSize=12;fontColor=default;entryX=0;entryY=0;entryDx=0;entryDy=0;" parent="f8H7bPCvHPPE9_fxp1JB-59" edge="1">
          <mxGeometry width="50" height="50" relative="1" as="geometry">
            <mxPoint x="17" y="15" as="sourcePoint" />
            <mxPoint x="-8" y="15" as="targetPoint" />
          </mxGeometry>
        </mxCell>
        <mxCell id="f8H7bPCvHPPE9_fxp1JB-61" value="" style="ellipse;whiteSpace=wrap;html=1;pointerEvents=0;align=center;verticalAlign=top;fontFamily=Helvetica;fontSize=12;fontColor=default;fillColor=none;gradientColor=none;rotation=90;" parent="f8H7bPCvHPPE9_fxp1JB-59" vertex="1">
          <mxGeometry x="-13" y="12" width="5" height="5" as="geometry" />
        </mxCell>
        <mxCell id="f8H7bPCvHPPE9_fxp1JB-66" value="Email" style="text;html=1;align=center;verticalAlign=middle;resizable=0;points=[];autosize=1;strokeColor=none;fillColor=none;fontFamily=Helvetica;fontSize=10;fontColor=default;" parent="1" vertex="1">
          <mxGeometry x="890" y="-1098" width="50" height="30" as="geometry" />
        </mxCell>
        <mxCell id="f8H7bPCvHPPE9_fxp1JB-67" value="" style="endArrow=none;html=1;rounded=0;exitX=0;exitY=0.5;exitDx=0;exitDy=0;entryX=0.174;entryY=1.056;entryDx=0;entryDy=0;entryPerimeter=0;" parent="1" source="f8H7bPCvHPPE9_fxp1JB-30" target="f8H7bPCvHPPE9_fxp1JB-48" edge="1">
          <mxGeometry width="50" height="50" relative="1" as="geometry">
            <mxPoint x="359.5" y="-1067" as="sourcePoint" />
            <mxPoint x="479.5" y="-1157" as="targetPoint" />
            <Array as="points">
              <mxPoint x="529.5" y="-867" />
              <mxPoint x="529.5" y="-987" />
              <mxPoint x="666.5" y="-987" />
              <mxPoint x="783.5" y="-987" />
            </Array>
          </mxGeometry>
        </mxCell>
        <mxCell id="f8H7bPCvHPPE9_fxp1JB-68" value="" style="group" parent="1" vertex="1" connectable="0">
          <mxGeometry x="801.5" y="-1112" width="5" height="30" as="geometry" />
        </mxCell>
        <mxCell id="f8H7bPCvHPPE9_fxp1JB-69" value="" style="endArrow=none;html=1;rounded=0;fontFamily=Helvetica;fontSize=12;fontColor=default;entryX=0;entryY=0;entryDx=0;entryDy=0;" parent="f8H7bPCvHPPE9_fxp1JB-68" edge="1">
          <mxGeometry width="50" height="50" relative="1" as="geometry">
            <mxPoint x="2.5" y="30" as="sourcePoint" />
            <mxPoint x="2.5" y="5" as="targetPoint" />
          </mxGeometry>
        </mxCell>
        <mxCell id="f8H7bPCvHPPE9_fxp1JB-70" value="" style="whiteSpace=wrap;html=1;aspect=fixed;pointerEvents=0;align=center;verticalAlign=top;fontFamily=Helvetica;fontSize=12;fillColor=#000000;strokeColor=#000000;fillStyle=auto;" parent="f8H7bPCvHPPE9_fxp1JB-68" vertex="1">
          <mxGeometry width="5" height="5" as="geometry" />
        </mxCell>
        <mxCell id="f8H7bPCvHPPE9_fxp1JB-71" value="Indirizzo" style="text;html=1;align=center;verticalAlign=middle;resizable=0;points=[];autosize=1;strokeColor=none;fillColor=none;fontFamily=Helvetica;fontSize=10;fontColor=default;" parent="1" vertex="1">
          <mxGeometry x="770" y="-1137" width="60" height="30" as="geometry" />
        </mxCell>
        <mxCell id="f8H7bPCvHPPE9_fxp1JB-72" value="Registrazione" style="rhombus;whiteSpace=wrap;html=1;" parent="1" vertex="1">
          <mxGeometry x="745.44" y="-894" width="110" height="50" as="geometry" />
        </mxCell>
        <mxCell id="f8H7bPCvHPPE9_fxp1JB-76" value="" style="group" parent="1" vertex="1" connectable="0">
          <mxGeometry x="761.5" y="-1110" width="5" height="30" as="geometry" />
        </mxCell>
        <mxCell id="f8H7bPCvHPPE9_fxp1JB-77" value="" style="endArrow=none;html=1;rounded=0;fontFamily=Helvetica;fontSize=12;fontColor=default;entryX=0;entryY=0;entryDx=0;entryDy=0;" parent="f8H7bPCvHPPE9_fxp1JB-76" edge="1">
          <mxGeometry width="50" height="50" relative="1" as="geometry">
            <mxPoint x="2.5" y="30" as="sourcePoint" />
            <mxPoint x="2.5" y="5" as="targetPoint" />
          </mxGeometry>
        </mxCell>
        <mxCell id="f8H7bPCvHPPE9_fxp1JB-78" value="" style="whiteSpace=wrap;html=1;aspect=fixed;pointerEvents=0;align=center;verticalAlign=top;fontFamily=Helvetica;fontSize=12;fillColor=#000000;strokeColor=#000000;fillStyle=auto;" parent="f8H7bPCvHPPE9_fxp1JB-76" vertex="1">
          <mxGeometry width="5" height="5" as="geometry" />
        </mxCell>
        <mxCell id="f8H7bPCvHPPE9_fxp1JB-79" value="" style="group;direction=east;rotation=90;" parent="1" vertex="1" connectable="0">
          <mxGeometry x="746.5" y="-1097" width="5" height="30" as="geometry" />
        </mxCell>
        <mxCell id="f8H7bPCvHPPE9_fxp1JB-80" value="" style="endArrow=none;html=1;rounded=0;fontFamily=Helvetica;fontSize=12;fontColor=default;entryX=0;entryY=0;entryDx=0;entryDy=0;" parent="f8H7bPCvHPPE9_fxp1JB-79" edge="1">
          <mxGeometry width="50" height="50" relative="1" as="geometry">
            <mxPoint x="17" y="15" as="sourcePoint" />
            <mxPoint x="-8" y="15" as="targetPoint" />
          </mxGeometry>
        </mxCell>
        <mxCell id="f8H7bPCvHPPE9_fxp1JB-81" value="" style="ellipse;whiteSpace=wrap;html=1;pointerEvents=0;align=center;verticalAlign=top;fontFamily=Helvetica;fontSize=12;fontColor=default;fillColor=none;gradientColor=none;rotation=90;" parent="f8H7bPCvHPPE9_fxp1JB-79" vertex="1">
          <mxGeometry x="-13" y="12" width="5" height="5" as="geometry" />
        </mxCell>
        <mxCell id="f8H7bPCvHPPE9_fxp1JB-82" value="CI" style="text;html=1;align=center;verticalAlign=middle;resizable=0;points=[];autosize=1;strokeColor=none;fillColor=none;fontFamily=Helvetica;fontSize=10;fontColor=default;" parent="1" vertex="1">
          <mxGeometry x="707.25" y="-1098" width="30" height="30" as="geometry" />
        </mxCell>
        <mxCell id="f8H7bPCvHPPE9_fxp1JB-89" value="Cittadino" style="rounded=0;whiteSpace=wrap;html=1;" parent="1" vertex="1">
          <mxGeometry x="721" y="-778" width="80" height="30" as="geometry" />
        </mxCell>
        <mxCell id="f8H7bPCvHPPE9_fxp1JB-94" value="" style="group;flipV=1;" parent="1" vertex="1" connectable="0">
          <mxGeometry x="719" y="-807" width="5" height="30" as="geometry" />
        </mxCell>
        <mxCell id="f8H7bPCvHPPE9_fxp1JB-95" value="" style="endArrow=none;html=1;rounded=0;fontFamily=Helvetica;fontSize=12;fontColor=default;entryX=0;entryY=0;entryDx=0;entryDy=0;" parent="f8H7bPCvHPPE9_fxp1JB-94" edge="1">
          <mxGeometry width="50" height="50" relative="1" as="geometry">
            <mxPoint x="2.5" y="30" as="sourcePoint" />
            <mxPoint x="2.5" y="5" as="targetPoint" />
          </mxGeometry>
        </mxCell>
        <mxCell id="f8H7bPCvHPPE9_fxp1JB-96" value="" style="ellipse;whiteSpace=wrap;html=1;pointerEvents=0;align=center;verticalAlign=top;fontFamily=Helvetica;fontSize=12;fontColor=default;fillColor=none;gradientColor=none;rotation=0;" parent="f8H7bPCvHPPE9_fxp1JB-94" vertex="1">
          <mxGeometry width="5" height="5" as="geometry" />
        </mxCell>
        <mxCell id="f8H7bPCvHPPE9_fxp1JB-97" value="CF" style="text;html=1;align=center;verticalAlign=middle;resizable=0;points=[];autosize=1;strokeColor=none;fillColor=none;fontFamily=Helvetica;fontSize=10;fontColor=default;" parent="1" vertex="1">
          <mxGeometry x="700.9999999999999" y="-831" width="40" height="30" as="geometry" />
        </mxCell>
        <mxCell id="f8H7bPCvHPPE9_fxp1JB-106" value="" style="endArrow=none;html=1;rounded=0;entryX=0.5;entryY=1;entryDx=0;entryDy=0;exitX=1;exitY=0;exitDx=0;exitDy=0;" parent="1" source="f8H7bPCvHPPE9_fxp1JB-89" target="f8H7bPCvHPPE9_fxp1JB-72" edge="1">
          <mxGeometry width="50" height="50" relative="1" as="geometry">
            <mxPoint x="799.5" y="-957" as="sourcePoint" />
            <mxPoint x="849.5" y="-1007" as="targetPoint" />
            <Array as="points" />
          </mxGeometry>
        </mxCell>
        <mxCell id="f8H7bPCvHPPE9_fxp1JB-107" value="(1, 1)" style="text;html=1;align=center;verticalAlign=middle;resizable=0;points=[];autosize=1;strokeColor=none;fillColor=none;fontFamily=Helvetica;fontSize=10;fontColor=default;" parent="1" vertex="1">
          <mxGeometry x="790.94" y="-796" width="50" height="30" as="geometry" />
        </mxCell>
        <mxCell id="f8H7bPCvHPPE9_fxp1JB-108" value="DataRegistrazione" style="text;html=1;align=center;verticalAlign=middle;resizable=0;points=[];autosize=1;strokeColor=none;fillColor=none;fontFamily=Helvetica;fontSize=10;fontColor=default;" parent="1" vertex="1">
          <mxGeometry x="800.0600000000001" y="-927" width="110" height="30" as="geometry" />
        </mxCell>
        <mxCell id="f8H7bPCvHPPE9_fxp1JB-109" value="" style="group" parent="1" vertex="1" connectable="0">
          <mxGeometry x="843.94" y="-904" width="5" height="30" as="geometry" />
        </mxCell>
        <mxCell id="f8H7bPCvHPPE9_fxp1JB-110" value="" style="endArrow=none;html=1;rounded=0;fontFamily=Helvetica;fontSize=12;fontColor=default;entryX=0;entryY=0;entryDx=0;entryDy=0;" parent="f8H7bPCvHPPE9_fxp1JB-109" edge="1">
          <mxGeometry width="50" height="50" relative="1" as="geometry">
            <mxPoint x="2.5" y="30" as="sourcePoint" />
            <mxPoint x="2.5" y="5" as="targetPoint" />
          </mxGeometry>
        </mxCell>
        <mxCell id="f8H7bPCvHPPE9_fxp1JB-111" value="" style="ellipse;whiteSpace=wrap;html=1;pointerEvents=0;align=center;verticalAlign=top;fontFamily=Helvetica;fontSize=12;fontColor=default;fillColor=none;gradientColor=none;rotation=-180;" parent="f8H7bPCvHPPE9_fxp1JB-109" vertex="1">
          <mxGeometry width="5" height="5" as="geometry" />
        </mxCell>
        <mxCell id="f8H7bPCvHPPE9_fxp1JB-112" value="" style="group" parent="1" vertex="1" connectable="0">
          <mxGeometry x="759.94" y="-907" width="5" height="30" as="geometry" />
        </mxCell>
        <mxCell id="f8H7bPCvHPPE9_fxp1JB-113" value="" style="endArrow=none;html=1;rounded=0;fontFamily=Helvetica;fontSize=12;fontColor=default;entryX=0;entryY=0;entryDx=0;entryDy=0;" parent="f8H7bPCvHPPE9_fxp1JB-112" edge="1">
          <mxGeometry width="50" height="50" relative="1" as="geometry">
            <mxPoint x="2.5" y="30" as="sourcePoint" />
            <mxPoint x="2.5" y="5" as="targetPoint" />
          </mxGeometry>
        </mxCell>
        <mxCell id="f8H7bPCvHPPE9_fxp1JB-114" value="" style="ellipse;whiteSpace=wrap;html=1;pointerEvents=0;align=center;verticalAlign=top;fontFamily=Helvetica;fontSize=12;fontColor=default;fillColor=none;gradientColor=none;rotation=-180;" parent="f8H7bPCvHPPE9_fxp1JB-112" vertex="1">
          <mxGeometry width="5" height="5" as="geometry" />
        </mxCell>
        <mxCell id="f8H7bPCvHPPE9_fxp1JB-115" value="Stato" style="text;html=1;align=center;verticalAlign=middle;resizable=0;points=[];autosize=1;strokeColor=none;fillColor=none;fontFamily=Helvetica;fontSize=10;fontColor=default;" parent="1" vertex="1">
          <mxGeometry x="737.94" y="-930" width="50" height="30" as="geometry" />
        </mxCell>
        <mxCell id="f8H7bPCvHPPE9_fxp1JB-119" value="Controllo" style="rhombus;whiteSpace=wrap;html=1;" parent="1" vertex="1">
          <mxGeometry x="943.12" y="-893" width="110" height="50" as="geometry" />
        </mxCell>
        <mxCell id="f8H7bPCvHPPE9_fxp1JB-120" value="SuperAdmin" style="rounded=0;whiteSpace=wrap;html=1;" parent="1" vertex="1">
          <mxGeometry x="919" y="-778.5" width="80" height="30" as="geometry" />
        </mxCell>
        <mxCell id="f8H7bPCvHPPE9_fxp1JB-121" value="" style="endArrow=none;html=1;rounded=0;exitX=0.894;exitY=1.056;exitDx=0;exitDy=0;entryX=0;entryY=0.5;entryDx=0;entryDy=0;exitPerimeter=0;" parent="1" source="f8H7bPCvHPPE9_fxp1JB-48" target="f8H7bPCvHPPE9_fxp1JB-119" edge="1">
          <mxGeometry width="50" height="50" relative="1" as="geometry">
            <mxPoint x="519.5" y="-1057" as="sourcePoint" />
            <mxPoint x="569.5" y="-1107" as="targetPoint" />
            <Array as="points">
              <mxPoint x="862.5" y="-987" />
              <mxPoint x="909.5" y="-987" />
              <mxPoint x="909.5" y="-867" />
            </Array>
          </mxGeometry>
        </mxCell>
        <mxCell id="f8H7bPCvHPPE9_fxp1JB-122" value="(0, 1)" style="text;html=1;align=center;verticalAlign=middle;resizable=0;points=[];autosize=1;strokeColor=none;fillColor=none;fontFamily=Helvetica;fontSize=10;fontColor=default;" parent="1" vertex="1">
          <mxGeometry x="900.5" y="-892" width="50" height="30" as="geometry" />
        </mxCell>
        <mxCell id="f8H7bPCvHPPE9_fxp1JB-123" value="" style="endArrow=none;html=1;rounded=0;entryX=1;entryY=0;entryDx=0;entryDy=0;exitX=0.5;exitY=1;exitDx=0;exitDy=0;" parent="1" source="f8H7bPCvHPPE9_fxp1JB-119" target="f8H7bPCvHPPE9_fxp1JB-120" edge="1">
          <mxGeometry width="50" height="50" relative="1" as="geometry">
            <mxPoint x="1039.5" y="-777" as="sourcePoint" />
            <mxPoint x="669.5" y="-1087" as="targetPoint" />
          </mxGeometry>
        </mxCell>
        <mxCell id="f8H7bPCvHPPE9_fxp1JB-124" value="(1, 1)" style="text;html=1;align=center;verticalAlign=middle;resizable=0;points=[];autosize=1;strokeColor=none;fillColor=none;fontFamily=Helvetica;fontSize=10;fontColor=default;" parent="1" vertex="1">
          <mxGeometry x="989.5" y="-798" width="50" height="30" as="geometry" />
        </mxCell>
        <mxCell id="f8H7bPCvHPPE9_fxp1JB-132" value="" style="group" parent="1" vertex="1" connectable="0">
          <mxGeometry x="916.5" y="-807.5" width="5" height="30" as="geometry" />
        </mxCell>
        <mxCell id="f8H7bPCvHPPE9_fxp1JB-133" value="" style="endArrow=none;html=1;rounded=0;fontFamily=Helvetica;fontSize=12;fontColor=default;entryX=0;entryY=0;entryDx=0;entryDy=0;" parent="f8H7bPCvHPPE9_fxp1JB-132" edge="1">
          <mxGeometry width="50" height="50" relative="1" as="geometry">
            <mxPoint x="2.5" y="30" as="sourcePoint" />
            <mxPoint x="2.5" y="5" as="targetPoint" />
          </mxGeometry>
        </mxCell>
        <mxCell id="f8H7bPCvHPPE9_fxp1JB-134" value="" style="ellipse;whiteSpace=wrap;html=1;pointerEvents=0;align=center;verticalAlign=top;fontFamily=Helvetica;fontSize=12;fontColor=default;fillColor=none;gradientColor=none;rotation=-180;" parent="f8H7bPCvHPPE9_fxp1JB-132" vertex="1">
          <mxGeometry width="5" height="5" as="geometry" />
        </mxCell>
        <mxCell id="f8H7bPCvHPPE9_fxp1JB-135" value="Ruolo" style="text;html=1;align=center;verticalAlign=middle;resizable=0;points=[];autosize=1;strokeColor=none;fillColor=none;fontFamily=Helvetica;fontSize=10;fontColor=default;" parent="1" vertex="1">
          <mxGeometry x="894" y="-831" width="50" height="30" as="geometry" />
        </mxCell>
        <mxCell id="f8H7bPCvHPPE9_fxp1JB-136" value="" style="group" parent="1" vertex="1" connectable="0">
          <mxGeometry x="964.5" y="-909" width="5" height="30" as="geometry" />
        </mxCell>
        <mxCell id="f8H7bPCvHPPE9_fxp1JB-137" value="" style="endArrow=none;html=1;rounded=0;fontFamily=Helvetica;fontSize=12;fontColor=default;entryX=0;entryY=0;entryDx=0;entryDy=0;" parent="f8H7bPCvHPPE9_fxp1JB-136" edge="1">
          <mxGeometry width="50" height="50" relative="1" as="geometry">
            <mxPoint x="2.5" y="30" as="sourcePoint" />
            <mxPoint x="2.5" y="5" as="targetPoint" />
          </mxGeometry>
        </mxCell>
        <mxCell id="f8H7bPCvHPPE9_fxp1JB-138" value="" style="ellipse;whiteSpace=wrap;html=1;pointerEvents=0;align=center;verticalAlign=top;fontFamily=Helvetica;fontSize=12;fontColor=default;fillColor=none;gradientColor=none;rotation=-180;" parent="f8H7bPCvHPPE9_fxp1JB-136" vertex="1">
          <mxGeometry width="5" height="5" as="geometry" />
        </mxCell>
        <mxCell id="f8H7bPCvHPPE9_fxp1JB-139" value="LogAttivita" style="text;html=1;align=center;verticalAlign=middle;resizable=0;points=[];autosize=1;strokeColor=none;fillColor=none;fontFamily=Helvetica;fontSize=10;fontColor=default;" parent="1" vertex="1">
          <mxGeometry x="927.5" y="-933" width="70" height="30" as="geometry" />
        </mxCell>
        <mxCell id="f8H7bPCvHPPE9_fxp1JB-140" value="" style="group" parent="1" vertex="1" connectable="0">
          <mxGeometry x="1028.5" y="-927" width="5" height="30" as="geometry" />
        </mxCell>
        <mxCell id="f8H7bPCvHPPE9_fxp1JB-141" value="" style="endArrow=none;html=1;rounded=0;fontFamily=Helvetica;fontSize=12;fontColor=default;entryX=0;entryY=0;entryDx=0;entryDy=0;" parent="f8H7bPCvHPPE9_fxp1JB-140" edge="1">
          <mxGeometry width="50" height="50" relative="1" as="geometry">
            <mxPoint x="2.5" y="30" as="sourcePoint" />
            <mxPoint x="2.5" y="5" as="targetPoint" />
          </mxGeometry>
        </mxCell>
        <mxCell id="f8H7bPCvHPPE9_fxp1JB-142" value="" style="ellipse;whiteSpace=wrap;html=1;pointerEvents=0;align=center;verticalAlign=top;fontFamily=Helvetica;fontSize=12;fillColor=#000000;strokeColor=#000000;fontColor=default;rotation=-180;" parent="f8H7bPCvHPPE9_fxp1JB-140" vertex="1">
          <mxGeometry width="5" height="5" as="geometry" />
        </mxCell>
        <mxCell id="f8H7bPCvHPPE9_fxp1JB-143" value="DataAssegnazioneRuolo" style="text;html=1;align=center;verticalAlign=middle;resizable=0;points=[];autosize=1;strokeColor=none;fillColor=none;fontFamily=Helvetica;fontSize=10;fontColor=default;" parent="1" vertex="1">
          <mxGeometry x="971.5" y="-949" width="130" height="30" as="geometry" />
        </mxCell>
        <mxCell id="f8H7bPCvHPPE9_fxp1JB-144" value="" style="endArrow=none;html=1;rounded=0;exitX=0.791;exitY=0.309;exitDx=0;exitDy=0;exitPerimeter=0;" parent="1" edge="1">
          <mxGeometry width="50" height="50" relative="1" as="geometry">
            <mxPoint x="1031" y="-877.55" as="sourcePoint" />
            <mxPoint x="1031" y="-899" as="targetPoint" />
          </mxGeometry>
        </mxCell>
        <mxCell id="f8H7bPCvHPPE9_fxp1JB-145" value="" style="group;rotation=-120;" parent="1" vertex="1" connectable="0">
          <mxGeometry x="1056.5" y="-893" width="5" height="30" as="geometry" />
        </mxCell>
        <mxCell id="f8H7bPCvHPPE9_fxp1JB-146" value="" style="endArrow=none;html=1;rounded=0;fontFamily=Helvetica;fontSize=12;fontColor=default;entryX=0;entryY=0;entryDx=0;entryDy=0;" parent="f8H7bPCvHPPE9_fxp1JB-145" edge="1">
          <mxGeometry width="50" height="50" relative="1" as="geometry">
            <mxPoint x="-10" y="22" as="sourcePoint" />
            <mxPoint x="12" y="10" as="targetPoint" />
          </mxGeometry>
        </mxCell>
        <mxCell id="f8H7bPCvHPPE9_fxp1JB-147" value="" style="ellipse;whiteSpace=wrap;html=1;pointerEvents=0;align=center;verticalAlign=top;fontFamily=Helvetica;fontSize=12;fontColor=default;fillColor=none;gradientColor=none;rotation=-120;" parent="f8H7bPCvHPPE9_fxp1JB-145" vertex="1">
          <mxGeometry x="12" y="6" width="5" height="5" as="geometry" />
        </mxCell>
        <mxCell id="f8H7bPCvHPPE9_fxp1JB-148" value="UltimoAccesso" style="text;html=1;align=center;verticalAlign=middle;resizable=0;points=[];autosize=1;strokeColor=none;fillColor=none;fontFamily=Helvetica;fontSize=10;fontColor=default;" parent="1" vertex="1">
          <mxGeometry x="1033.12" y="-909" width="90" height="30" as="geometry" />
        </mxCell>
        <mxCell id="f8H7bPCvHPPE9_fxp1JB-152" value="" style="group" parent="1" vertex="1" connectable="0">
          <mxGeometry x="1034.5" y="-862" width="5" height="30" as="geometry" />
        </mxCell>
        <mxCell id="f8H7bPCvHPPE9_fxp1JB-153" value="" style="endArrow=none;html=1;rounded=0;fontFamily=Helvetica;fontSize=12;fontColor=default;entryX=0;entryY=0;entryDx=0;entryDy=0;" parent="f8H7bPCvHPPE9_fxp1JB-152" edge="1">
          <mxGeometry width="50" height="50" relative="1" as="geometry">
            <mxPoint x="2.5" as="sourcePoint" />
            <mxPoint x="2.5" y="25" as="targetPoint" />
          </mxGeometry>
        </mxCell>
        <mxCell id="f8H7bPCvHPPE9_fxp1JB-154" value="" style="ellipse;whiteSpace=wrap;html=1;pointerEvents=0;align=center;verticalAlign=top;fontFamily=Helvetica;fontSize=12;fontColor=default;fillColor=none;gradientColor=none;" parent="f8H7bPCvHPPE9_fxp1JB-152" vertex="1">
          <mxGeometry y="25" width="5" height="5" as="geometry" />
        </mxCell>
        <mxCell id="f8H7bPCvHPPE9_fxp1JB-155" value="Stato" style="text;html=1;align=center;verticalAlign=middle;resizable=0;points=[];autosize=1;strokeColor=none;fillColor=none;fontFamily=Helvetica;fontSize=10;fontColor=default;" parent="1" vertex="1">
          <mxGeometry x="1011.6199999999999" y="-840" width="50" height="30" as="geometry" />
        </mxCell>
        <mxCell id="sEaKDgSVYfcNvKfQJnW8-4" value="&lt;div style=&quot;padding-top: 3px;&quot;&gt;&lt;span style=&quot;background-color: initial;&quot;&gt;Creazione&lt;/span&gt;&lt;br&gt;&lt;/div&gt;" style="rhombus;whiteSpace=wrap;html=1;pointerEvents=0;align=center;verticalAlign=top;fontFamily=Helvetica;fontSize=12;fontColor=default;fillColor=none;gradientColor=none;spacingTop=2;" parent="1" vertex="1">
          <mxGeometry x="358.75" y="-460" width="127.25" height="38" as="geometry" />
        </mxCell>
        <mxCell id="sEaKDgSVYfcNvKfQJnW8-5" value="" style="endArrow=none;html=1;rounded=0;fontFamily=Helvetica;fontSize=12;fontColor=default;exitX=0;exitY=0.5;exitDx=0;exitDy=0;" parent="1" source="sEaKDgSVYfcNvKfQJnW8-4" edge="1">
          <mxGeometry width="50" height="50" relative="1" as="geometry">
            <mxPoint x="359.5" y="-440" as="sourcePoint" />
            <mxPoint x="70" y="-441" as="targetPoint" />
            <Array as="points" />
          </mxGeometry>
        </mxCell>
        <mxCell id="sEaKDgSVYfcNvKfQJnW8-6" value="" style="endArrow=none;html=1;rounded=0;fontFamily=Helvetica;fontSize=12;fontColor=default;entryX=0.19;entryY=0.302;entryDx=0;entryDy=0;entryPerimeter=0;" parent="1" target="sEaKDgSVYfcNvKfQJnW8-4" edge="1">
          <mxGeometry width="50" height="50" relative="1" as="geometry">
            <mxPoint x="253" y="-498" as="sourcePoint" />
            <mxPoint x="389.5" y="-450" as="targetPoint" />
            <Array as="points">
              <mxPoint x="383" y="-498" />
            </Array>
          </mxGeometry>
        </mxCell>
        <mxCell id="sEaKDgSVYfcNvKfQJnW8-13" value="" style="group;pointerEvents=0;align=center;verticalAlign=top;fontFamily=Helvetica;fontSize=12;fontColor=default;fillColor=none;gradientColor=none;" parent="1" vertex="1" connectable="0">
          <mxGeometry x="440.25" y="-484" width="5" height="30" as="geometry" />
        </mxCell>
        <mxCell id="sEaKDgSVYfcNvKfQJnW8-14" value="" style="endArrow=none;html=1;rounded=0;fontFamily=Helvetica;fontSize=12;fontColor=default;entryX=0;entryY=0;entryDx=0;entryDy=0;" parent="sEaKDgSVYfcNvKfQJnW8-13" edge="1">
          <mxGeometry width="50" height="50" relative="1" as="geometry">
            <mxPoint x="2.5" y="30" as="sourcePoint" />
            <mxPoint x="2.5" y="5" as="targetPoint" />
          </mxGeometry>
        </mxCell>
        <mxCell id="sEaKDgSVYfcNvKfQJnW8-15" value="" style="ellipse;whiteSpace=wrap;html=1;pointerEvents=0;align=center;verticalAlign=top;fontFamily=Helvetica;fontSize=12;fontColor=default;fillColor=none;gradientColor=none;rotation=-180;" parent="sEaKDgSVYfcNvKfQJnW8-13" vertex="1">
          <mxGeometry width="5" height="5" as="geometry" />
        </mxCell>
        <mxCell id="sEaKDgSVYfcNvKfQJnW8-16" value="Ruolo" style="text;html=1;align=center;verticalAlign=middle;resizable=0;points=[];autosize=1;strokeColor=none;fillColor=none;fontFamily=Helvetica;fontSize=10;fontColor=default;" parent="1" vertex="1">
          <mxGeometry x="418.5" y="-507" width="50" height="30" as="geometry" />
        </mxCell>
        <mxCell id="sEaKDgSVYfcNvKfQJnW8-17" value="" style="endArrow=none;html=1;rounded=0;entryX=0.568;entryY=1.01;entryDx=0;entryDy=0;entryPerimeter=0;" parent="1" source="f8H7bPCvHPPE9_fxp1JB-72" target="f8H7bPCvHPPE9_fxp1JB-48" edge="1">
          <mxGeometry width="50" height="50" relative="1" as="geometry">
            <mxPoint x="745.5" y="-869" as="sourcePoint" />
            <mxPoint x="479.5" y="-1067" as="targetPoint" />
            <Array as="points">
              <mxPoint x="709.5" y="-869" />
              <mxPoint x="709.5" y="-957" />
              <mxPoint x="826.5" y="-957" />
            </Array>
          </mxGeometry>
        </mxCell>
        <mxCell id="f8H7bPCvHPPE9_fxp1JB-88" value="(0, 1)" style="text;html=1;align=center;verticalAlign=middle;resizable=0;points=[];autosize=1;strokeColor=none;fillColor=none;fontFamily=Helvetica;fontSize=10;fontColor=default;" parent="1" vertex="1">
          <mxGeometry x="703" y="-893" width="50" height="30" as="geometry" />
        </mxCell>
        <mxCell id="sEaKDgSVYfcNvKfQJnW8-19" value="" style="group;pointerEvents=0;align=center;verticalAlign=top;fontFamily=Helvetica;fontSize=12;fontColor=default;fillColor=none;gradientColor=none;flipH=0;flipV=1;direction=east;rotation=-90;" parent="1" vertex="1" connectable="0">
          <mxGeometry x="878" y="-1097" width="5" height="30" as="geometry" />
        </mxCell>
        <mxCell id="sEaKDgSVYfcNvKfQJnW8-20" value="" style="endArrow=none;html=1;rounded=0;fontFamily=Helvetica;fontSize=12;fontColor=default;entryX=0;entryY=0;entryDx=0;entryDy=0;" parent="sEaKDgSVYfcNvKfQJnW8-19" edge="1">
          <mxGeometry width="50" height="50" relative="1" as="geometry">
            <mxPoint x="-12" y="15" as="sourcePoint" />
            <mxPoint x="13" y="15" as="targetPoint" />
          </mxGeometry>
        </mxCell>
        <mxCell id="sEaKDgSVYfcNvKfQJnW8-21" value="" style="ellipse;whiteSpace=wrap;html=1;pointerEvents=0;align=center;verticalAlign=top;fontFamily=Helvetica;fontSize=12;fontColor=default;fillColor=none;gradientColor=none;rotation=-270;" parent="sEaKDgSVYfcNvKfQJnW8-19" vertex="1">
          <mxGeometry x="13" y="13" width="5" height="5" as="geometry" />
        </mxCell>
        <mxCell id="sEaKDgSVYfcNvKfQJnW8-22" value="(0, N)" style="text;html=1;align=center;verticalAlign=middle;resizable=0;points=[];autosize=1;strokeColor=none;fillColor=none;fontFamily=Helvetica;fontSize=10;fontColor=default;" parent="1" vertex="1">
          <mxGeometry x="205.75" y="-463" width="50" height="30" as="geometry" />
        </mxCell>
        <mxCell id="sEaKDgSVYfcNvKfQJnW8-23" value="" style="endArrow=none;html=1;rounded=0;fontFamily=Helvetica;fontSize=12;fontColor=default;exitX=1;exitY=0.5;exitDx=0;exitDy=0;entryX=0.136;entryY=0.994;entryDx=0;entryDy=0;entryPerimeter=0;" parent="1" source="sEaKDgSVYfcNvKfQJnW8-4" target="f8H7bPCvHPPE9_fxp1JB-1" edge="1">
          <mxGeometry width="50" height="50" relative="1" as="geometry">
            <mxPoint x="279.5" y="-569" as="sourcePoint" />
            <mxPoint x="570" y="-730" as="targetPoint" />
            <Array as="points">
              <mxPoint x="569.5" y="-440" />
            </Array>
          </mxGeometry>
        </mxCell>
        <mxCell id="pfabtf4lPMMX-cfPk-Wo-5" value="Tipo" style="text;html=1;align=center;verticalAlign=middle;resizable=0;points=[];autosize=1;strokeColor=none;fillColor=none;fontSize=10;" parent="1" vertex="1">
          <mxGeometry x="156.75" y="-252" width="40" height="30" as="geometry" />
        </mxCell>
        <mxCell id="CdhmtQijNbEH8fd7aBbH-4" value="Descrizione" style="text;html=1;align=center;verticalAlign=middle;resizable=0;points=[];autosize=1;strokeColor=none;fillColor=none;fontFamily=Helvetica;fontSize=10;fontColor=default;" parent="1" vertex="1">
          <mxGeometry x="412" y="-404.5" width="80" height="30" as="geometry" />
        </mxCell>
        <mxCell id="CdhmtQijNbEH8fd7aBbH-5" value="" style="group" parent="1" vertex="1" connectable="0">
          <mxGeometry x="449" y="-382" width="5" height="30" as="geometry" />
        </mxCell>
        <mxCell id="CdhmtQijNbEH8fd7aBbH-6" value="" style="endArrow=none;html=1;rounded=0;fontFamily=Helvetica;fontSize=12;fontColor=default;entryX=0;entryY=0;entryDx=0;entryDy=0;" parent="CdhmtQijNbEH8fd7aBbH-5" edge="1">
          <mxGeometry width="50" height="50" relative="1" as="geometry">
            <mxPoint x="2.5" y="30" as="sourcePoint" />
            <mxPoint x="2.5" y="5" as="targetPoint" />
          </mxGeometry>
        </mxCell>
        <mxCell id="CdhmtQijNbEH8fd7aBbH-7" value="" style="ellipse;whiteSpace=wrap;html=1;pointerEvents=0;align=center;verticalAlign=top;fontFamily=Helvetica;fontSize=12;fontColor=default;fillColor=none;gradientColor=none;rotation=-180;" parent="CdhmtQijNbEH8fd7aBbH-5" vertex="1">
          <mxGeometry width="5" height="5" as="geometry" />
        </mxCell>
        <mxCell id="CdhmtQijNbEH8fd7aBbH-8" value="" style="group" parent="1" vertex="1" connectable="0">
          <mxGeometry x="251" y="-540" width="5" height="30" as="geometry" />
        </mxCell>
        <mxCell id="CdhmtQijNbEH8fd7aBbH-9" value="" style="endArrow=none;html=1;rounded=0;fontFamily=Helvetica;fontSize=12;fontColor=default;entryX=0;entryY=0;entryDx=0;entryDy=0;" parent="CdhmtQijNbEH8fd7aBbH-8" edge="1">
          <mxGeometry width="50" height="50" relative="1" as="geometry">
            <mxPoint x="2.5" y="30" as="sourcePoint" />
            <mxPoint x="2.5" y="5" as="targetPoint" />
          </mxGeometry>
        </mxCell>
        <mxCell id="CdhmtQijNbEH8fd7aBbH-10" value="" style="whiteSpace=wrap;html=1;aspect=fixed;pointerEvents=0;align=center;verticalAlign=top;fontFamily=Helvetica;fontSize=12;fillColor=#000000;strokeColor=#000000;fillStyle=auto;" parent="CdhmtQijNbEH8fd7aBbH-8" vertex="1">
          <mxGeometry width="5" height="5" as="geometry" />
        </mxCell>
        <mxCell id="CdhmtQijNbEH8fd7aBbH-11" value="" style="group;flipV=1;" parent="1" vertex="1" connectable="0">
          <mxGeometry x="455" y="-563" width="5" height="30" as="geometry" />
        </mxCell>
        <mxCell id="CdhmtQijNbEH8fd7aBbH-12" value="" style="endArrow=none;html=1;rounded=0;fontFamily=Helvetica;fontSize=12;fontColor=default;entryX=0;entryY=0;entryDx=0;entryDy=0;" parent="CdhmtQijNbEH8fd7aBbH-11" edge="1">
          <mxGeometry width="50" height="50" relative="1" as="geometry">
            <mxPoint x="2.5" as="sourcePoint" />
            <mxPoint x="2.5" y="25" as="targetPoint" />
          </mxGeometry>
        </mxCell>
        <mxCell id="CdhmtQijNbEH8fd7aBbH-13" value="" style="whiteSpace=wrap;html=1;aspect=fixed;pointerEvents=0;align=center;verticalAlign=top;fontFamily=Helvetica;fontSize=12;fillColor=#000000;strokeColor=#000000;fillStyle=auto;" parent="CdhmtQijNbEH8fd7aBbH-11" vertex="1">
          <mxGeometry y="25" width="5" height="5" as="geometry" />
        </mxCell>
        <mxCell id="CdhmtQijNbEH8fd7aBbH-29" value="" style="whiteSpace=wrap;html=1;aspect=fixed;pointerEvents=0;align=center;verticalAlign=top;fontFamily=Helvetica;fontSize=12;fillColor=#000000;strokeColor=#000000;fillStyle=auto;" parent="CdhmtQijNbEH8fd7aBbH-11" vertex="1">
          <mxGeometry x="-6" y="247.5" width="5" height="5" as="geometry" />
        </mxCell>
        <mxCell id="CdhmtQijNbEH8fd7aBbH-31" value="" style="endArrow=none;html=1;rounded=0;fontFamily=Helvetica;fontSize=12;fontColor=default;entryX=0;entryY=0;entryDx=0;entryDy=0;" parent="CdhmtQijNbEH8fd7aBbH-11" edge="1">
          <mxGeometry width="50" height="50" relative="1" as="geometry">
            <mxPoint x="-3.5" y="222.5" as="sourcePoint" />
            <mxPoint x="-3.5" y="247.5" as="targetPoint" />
          </mxGeometry>
        </mxCell>
        <mxCell id="CdhmtQijNbEH8fd7aBbH-14" value="" style="group" parent="1" vertex="1" connectable="0">
          <mxGeometry x="404" y="-485" width="5" height="30" as="geometry" />
        </mxCell>
        <mxCell id="CdhmtQijNbEH8fd7aBbH-15" value="" style="endArrow=none;html=1;rounded=0;fontFamily=Helvetica;fontSize=12;fontColor=default;entryX=0;entryY=0;entryDx=0;entryDy=0;" parent="CdhmtQijNbEH8fd7aBbH-14" edge="1">
          <mxGeometry width="50" height="50" relative="1" as="geometry">
            <mxPoint x="2.5" y="30" as="sourcePoint" />
            <mxPoint x="2.5" y="5" as="targetPoint" />
          </mxGeometry>
        </mxCell>
        <mxCell id="CdhmtQijNbEH8fd7aBbH-16" value="" style="whiteSpace=wrap;html=1;aspect=fixed;pointerEvents=0;align=center;verticalAlign=top;fontFamily=Helvetica;fontSize=12;fillColor=#000000;strokeColor=#000000;fillStyle=auto;" parent="CdhmtQijNbEH8fd7aBbH-14" vertex="1">
          <mxGeometry width="5" height="5" as="geometry" />
        </mxCell>
        <mxCell id="CdhmtQijNbEH8fd7aBbH-17" value="Posizione" style="text;html=1;align=center;verticalAlign=middle;resizable=0;points=[];autosize=1;strokeColor=none;fillColor=none;fontFamily=Helvetica;fontSize=10;fontColor=default;" parent="1" vertex="1">
          <mxGeometry x="370.25" y="-680" width="70" height="30" as="geometry" />
        </mxCell>
        <mxCell id="CdhmtQijNbEH8fd7aBbH-18" value="" style="group;flipV=1;" parent="1" vertex="1" connectable="0">
          <mxGeometry x="392" y="-701" width="5" height="30" as="geometry" />
        </mxCell>
        <mxCell id="CdhmtQijNbEH8fd7aBbH-19" value="" style="endArrow=none;html=1;rounded=0;fontFamily=Helvetica;fontSize=12;fontColor=default;entryX=0;entryY=0;entryDx=0;entryDy=0;" parent="CdhmtQijNbEH8fd7aBbH-18" edge="1">
          <mxGeometry width="50" height="50" relative="1" as="geometry">
            <mxPoint x="2.5" as="sourcePoint" />
            <mxPoint x="2.5" y="25" as="targetPoint" />
          </mxGeometry>
        </mxCell>
        <mxCell id="CdhmtQijNbEH8fd7aBbH-20" value="" style="whiteSpace=wrap;html=1;aspect=fixed;pointerEvents=0;align=center;verticalAlign=top;fontFamily=Helvetica;fontSize=12;fillColor=#000000;strokeColor=#000000;fillStyle=auto;" parent="CdhmtQijNbEH8fd7aBbH-18" vertex="1">
          <mxGeometry y="25" width="5" height="5" as="geometry" />
        </mxCell>
        <mxCell id="CdhmtQijNbEH8fd7aBbH-30" value="Data" style="text;html=1;align=center;verticalAlign=middle;resizable=0;points=[];autosize=1;strokeColor=none;fillColor=none;fontFamily=Helvetica;fontSize=10;fontColor=default;" parent="1" vertex="1">
          <mxGeometry x="431" y="-321.5" width="40" height="30" as="geometry" />
        </mxCell>
        <mxCell id="CdhmtQijNbEH8fd7aBbH-32" value="" style="group;direction=east;rotation=90;" parent="1" vertex="1" connectable="0">
          <mxGeometry x="165" y="-772" width="5" height="30" as="geometry" />
        </mxCell>
        <mxCell id="CdhmtQijNbEH8fd7aBbH-33" value="" style="endArrow=none;html=1;rounded=0;fontFamily=Helvetica;fontSize=12;fontColor=default;entryX=0;entryY=0;entryDx=0;entryDy=0;" parent="CdhmtQijNbEH8fd7aBbH-32" edge="1">
          <mxGeometry width="50" height="50" relative="1" as="geometry">
            <mxPoint x="17" y="15" as="sourcePoint" />
            <mxPoint x="-8" y="15" as="targetPoint" />
          </mxGeometry>
        </mxCell>
        <mxCell id="CdhmtQijNbEH8fd7aBbH-34" value="" style="ellipse;whiteSpace=wrap;html=1;pointerEvents=0;align=center;verticalAlign=top;fontFamily=Helvetica;fontSize=12;fontColor=default;fillColor=none;gradientColor=none;rotation=90;" parent="CdhmtQijNbEH8fd7aBbH-32" vertex="1">
          <mxGeometry x="-13" y="12" width="5" height="5" as="geometry" />
        </mxCell>
        <mxCell id="CdhmtQijNbEH8fd7aBbH-35" value="Stato" style="text;html=1;align=center;verticalAlign=middle;resizable=0;points=[];autosize=1;strokeColor=none;fillColor=none;fontFamily=Helvetica;fontSize=10;fontColor=default;" parent="1" vertex="1">
          <mxGeometry x="106.75" y="-774" width="50" height="30" as="geometry" />
        </mxCell>
        <mxCell id="CdhmtQijNbEH8fd7aBbH-40" value="Stato" style="text;html=1;align=center;verticalAlign=middle;resizable=0;points=[];autosize=1;strokeColor=none;fillColor=none;fontFamily=Helvetica;fontSize=10;fontColor=default;" parent="1" vertex="1">
          <mxGeometry x="227.88" y="-485" width="50" height="30" as="geometry" />
        </mxCell>
        <mxCell id="CdhmtQijNbEH8fd7aBbH-44" value="" style="group" parent="1" vertex="1" connectable="0">
          <mxGeometry x="251" y="-506" width="5" height="30" as="geometry" />
        </mxCell>
        <mxCell id="CdhmtQijNbEH8fd7aBbH-45" value="" style="endArrow=none;html=1;rounded=0;fontFamily=Helvetica;fontSize=12;fontColor=default;entryX=0;entryY=0;entryDx=0;entryDy=0;" parent="CdhmtQijNbEH8fd7aBbH-44" edge="1">
          <mxGeometry width="50" height="50" relative="1" as="geometry">
            <mxPoint x="2.5" as="sourcePoint" />
            <mxPoint x="2.5" y="25" as="targetPoint" />
          </mxGeometry>
        </mxCell>
        <mxCell id="CdhmtQijNbEH8fd7aBbH-46" value="" style="ellipse;whiteSpace=wrap;html=1;pointerEvents=0;align=center;verticalAlign=top;fontFamily=Helvetica;fontSize=12;fontColor=default;fillColor=none;gradientColor=none;rotation=0;" parent="CdhmtQijNbEH8fd7aBbH-44" vertex="1">
          <mxGeometry y="25" width="5" height="5" as="geometry" />
        </mxCell>
        <mxCell id="CdhmtQijNbEH8fd7aBbH-47" value="(1, N)" style="text;html=1;align=center;verticalAlign=middle;resizable=0;points=[];autosize=1;strokeColor=none;fillColor=none;fontFamily=Helvetica;fontSize=10;fontColor=default;" parent="1" vertex="1">
          <mxGeometry x="291.5" y="-500.5" width="50" height="30" as="geometry" />
        </mxCell>
        <mxCell id="fs3QnoUxzOffLrFysb8_-4" value="IDSensore" style="text;html=1;align=center;verticalAlign=middle;resizable=0;points=[];autosize=1;strokeColor=none;fillColor=none;fontFamily=Helvetica;fontSize=10;fontColor=default;" parent="1" vertex="1">
          <mxGeometry x="336.62" y="-769" width="70" height="30" as="geometry" />
        </mxCell>
        <mxCell id="fs3QnoUxzOffLrFysb8_-5" value="DataInstallazione" style="text;html=1;align=center;verticalAlign=middle;resizable=0;points=[];autosize=1;strokeColor=none;fillColor=none;fontFamily=Helvetica;fontSize=10;fontColor=default;" parent="1" vertex="1">
          <mxGeometry x="456.5" y="-710" width="100" height="30" as="geometry" />
        </mxCell>
        <mxCell id="fs3QnoUxzOffLrFysb8_-9" value="Tipo" style="text;html=1;align=center;verticalAlign=middle;resizable=0;points=[];autosize=1;strokeColor=none;fillColor=none;fontFamily=Helvetica;fontSize=10;fontColor=default;" parent="1" vertex="1">
          <mxGeometry x="464" y="-740" width="40" height="30" as="geometry" />
        </mxCell>
        <mxCell id="fs3QnoUxzOffLrFysb8_-13" value="" style="group;rotation=90;" parent="1" vertex="1" connectable="0">
          <mxGeometry x="156" y="-675" width="5" height="30" as="geometry" />
        </mxCell>
        <mxCell id="fs3QnoUxzOffLrFysb8_-14" value="" style="endArrow=none;html=1;rounded=0;fontFamily=Helvetica;fontSize=12;fontColor=default;entryX=0;entryY=0;entryDx=0;entryDy=0;" parent="fs3QnoUxzOffLrFysb8_-13" edge="1">
          <mxGeometry width="50" height="50" relative="1" as="geometry">
            <mxPoint x="17" y="15" as="sourcePoint" />
            <mxPoint x="-8" y="15" as="targetPoint" />
          </mxGeometry>
        </mxCell>
        <mxCell id="fs3QnoUxzOffLrFysb8_-15" value="" style="ellipse;whiteSpace=wrap;html=1;pointerEvents=0;align=center;verticalAlign=top;fontFamily=Helvetica;fontSize=12;fillColor=#000000;strokeColor=#000000;rotation=90;" parent="fs3QnoUxzOffLrFysb8_-13" vertex="1">
          <mxGeometry x="-13" y="12" width="5" height="5" as="geometry" />
        </mxCell>
        <mxCell id="fs3QnoUxzOffLrFysb8_-16" value="" style="group" parent="1" vertex="1" connectable="0">
          <mxGeometry x="370" y="-747" width="5" height="30" as="geometry" />
        </mxCell>
        <mxCell id="fs3QnoUxzOffLrFysb8_-17" value="" style="endArrow=none;html=1;rounded=0;fontFamily=Helvetica;fontSize=12;fontColor=default;entryX=0;entryY=0;entryDx=0;entryDy=0;" parent="fs3QnoUxzOffLrFysb8_-16" edge="1">
          <mxGeometry width="50" height="50" relative="1" as="geometry">
            <mxPoint x="2.5" y="30" as="sourcePoint" />
            <mxPoint x="2.5" y="5" as="targetPoint" />
          </mxGeometry>
        </mxCell>
        <mxCell id="fs3QnoUxzOffLrFysb8_-18" value="" style="ellipse;whiteSpace=wrap;html=1;pointerEvents=0;align=center;verticalAlign=top;fontFamily=Helvetica;fontSize=12;fillColor=#000000;strokeColor=#000000;fontColor=default;rotation=-180;" parent="fs3QnoUxzOffLrFysb8_-16" vertex="1">
          <mxGeometry width="5" height="5" as="geometry" />
        </mxCell>
        <mxCell id="fs3QnoUxzOffLrFysb8_-19" value="" style="group;direction=east;rotation=-105;" parent="1" vertex="1" connectable="0">
          <mxGeometry x="454" y="-733" width="5" height="30" as="geometry" />
        </mxCell>
        <mxCell id="fs3QnoUxzOffLrFysb8_-20" value="" style="endArrow=none;html=1;rounded=0;fontFamily=Helvetica;fontSize=12;fontColor=default;entryX=0;entryY=0;entryDx=0;entryDy=0;" parent="fs3QnoUxzOffLrFysb8_-19" edge="1">
          <mxGeometry width="50" height="50" relative="1" as="geometry">
            <mxPoint x="-12" y="19" as="sourcePoint" />
            <mxPoint x="13" y="12" as="targetPoint" />
          </mxGeometry>
        </mxCell>
        <mxCell id="fs3QnoUxzOffLrFysb8_-21" value="" style="ellipse;whiteSpace=wrap;html=1;pointerEvents=0;align=center;verticalAlign=top;fontFamily=Helvetica;fontSize=12;fontColor=default;fillColor=none;gradientColor=none;rotation=-105;" parent="fs3QnoUxzOffLrFysb8_-19" vertex="1">
          <mxGeometry x="13" y="10" width="5" height="5" as="geometry" />
        </mxCell>
        <mxCell id="fs3QnoUxzOffLrFysb8_-22" value="" style="group;direction=east;rotation=-75;" parent="1" vertex="1" connectable="0">
          <mxGeometry x="451" y="-719" width="5" height="30" as="geometry" />
        </mxCell>
        <mxCell id="fs3QnoUxzOffLrFysb8_-23" value="" style="endArrow=none;html=1;rounded=0;fontFamily=Helvetica;fontSize=12;fontColor=default;entryX=0;entryY=0;entryDx=0;entryDy=0;" parent="fs3QnoUxzOffLrFysb8_-22" edge="1">
          <mxGeometry width="50" height="50" relative="1" as="geometry">
            <mxPoint x="-12" y="11" as="sourcePoint" />
            <mxPoint x="13" y="18" as="targetPoint" />
          </mxGeometry>
        </mxCell>
        <mxCell id="fs3QnoUxzOffLrFysb8_-24" value="" style="ellipse;whiteSpace=wrap;html=1;pointerEvents=0;align=center;verticalAlign=top;fontFamily=Helvetica;fontSize=12;fontColor=default;fillColor=none;gradientColor=none;rotation=-75;" parent="fs3QnoUxzOffLrFysb8_-22" vertex="1">
          <mxGeometry x="12" y="16" width="5" height="5" as="geometry" />
        </mxCell>
        <mxCell id="fs3QnoUxzOffLrFysb8_-30" value="IDUtente" style="text;html=1;align=center;verticalAlign=middle;resizable=0;points=[];autosize=1;strokeColor=none;fillColor=none;fontFamily=Helvetica;fontSize=12;fontColor=default;" parent="1" vertex="1">
          <mxGeometry x="643.5" y="-814" width="70" height="30" as="geometry" />
        </mxCell>
        <mxCell id="fs3QnoUxzOffLrFysb8_-31" value="" style="group;rotation=-90;" parent="1" vertex="1" connectable="0">
          <mxGeometry x="636" y="-814.5" width="5" height="30" as="geometry" />
        </mxCell>
        <mxCell id="fs3QnoUxzOffLrFysb8_-32" value="" style="endArrow=none;html=1;rounded=0;fontFamily=Helvetica;fontSize=12;fontColor=default;entryX=0;entryY=0;entryDx=0;entryDy=0;" parent="fs3QnoUxzOffLrFysb8_-31" edge="1">
          <mxGeometry width="50" height="50" relative="1" as="geometry">
            <mxPoint x="-12" y="15" as="sourcePoint" />
            <mxPoint x="13" y="15" as="targetPoint" />
          </mxGeometry>
        </mxCell>
        <mxCell id="fs3QnoUxzOffLrFysb8_-33" value="" style="ellipse;whiteSpace=wrap;html=1;pointerEvents=0;align=center;verticalAlign=top;fontFamily=Helvetica;fontSize=12;fillColor=#000000;strokeColor=#000000;rotation=-90;" parent="fs3QnoUxzOffLrFysb8_-31" vertex="1">
          <mxGeometry x="13" y="13" width="5" height="5" as="geometry" />
        </mxCell>
        <mxCell id="fs3QnoUxzOffLrFysb8_-34" value="IDUtente" style="text;html=1;align=center;verticalAlign=middle;resizable=0;points=[];autosize=1;strokeColor=none;fillColor=none;fontFamily=Helvetica;fontSize=12;fontColor=default;" parent="1" vertex="1">
          <mxGeometry x="806" y="-814.5" width="70" height="30" as="geometry" />
        </mxCell>
        <mxCell id="fs3QnoUxzOffLrFysb8_-35" value="" style="group;rotation=-90;" parent="1" vertex="1" connectable="0">
          <mxGeometry x="798.5" y="-815" width="5" height="30" as="geometry" />
        </mxCell>
        <mxCell id="fs3QnoUxzOffLrFysb8_-36" value="" style="endArrow=none;html=1;rounded=0;fontFamily=Helvetica;fontSize=12;fontColor=default;entryX=0;entryY=0;entryDx=0;entryDy=0;" parent="fs3QnoUxzOffLrFysb8_-35" edge="1">
          <mxGeometry width="50" height="50" relative="1" as="geometry">
            <mxPoint x="-12" y="15" as="sourcePoint" />
            <mxPoint x="13" y="15" as="targetPoint" />
          </mxGeometry>
        </mxCell>
        <mxCell id="fs3QnoUxzOffLrFysb8_-37" value="" style="ellipse;whiteSpace=wrap;html=1;pointerEvents=0;align=center;verticalAlign=top;fontFamily=Helvetica;fontSize=12;fillColor=#000000;strokeColor=#000000;rotation=-90;" parent="fs3QnoUxzOffLrFysb8_-35" vertex="1">
          <mxGeometry x="13" y="13" width="5" height="5" as="geometry" />
        </mxCell>
        <mxCell id="fs3QnoUxzOffLrFysb8_-38" value="IDUtente" style="text;html=1;align=center;verticalAlign=middle;resizable=0;points=[];autosize=1;strokeColor=none;fillColor=none;fontFamily=Helvetica;fontSize=12;fontColor=default;" parent="1" vertex="1">
          <mxGeometry x="1005.75" y="-815" width="70" height="30" as="geometry" />
        </mxCell>
        <mxCell id="fs3QnoUxzOffLrFysb8_-39" value="" style="group;rotation=-90;" parent="1" vertex="1" connectable="0">
          <mxGeometry x="998.25" y="-815.5" width="5" height="30" as="geometry" />
        </mxCell>
        <mxCell id="fs3QnoUxzOffLrFysb8_-40" value="" style="endArrow=none;html=1;rounded=0;fontFamily=Helvetica;fontSize=12;fontColor=default;entryX=0;entryY=0;entryDx=0;entryDy=0;" parent="fs3QnoUxzOffLrFysb8_-39" edge="1">
          <mxGeometry width="50" height="50" relative="1" as="geometry">
            <mxPoint x="-12" y="15" as="sourcePoint" />
            <mxPoint x="13" y="15" as="targetPoint" />
          </mxGeometry>
        </mxCell>
        <mxCell id="fs3QnoUxzOffLrFysb8_-41" value="" style="ellipse;whiteSpace=wrap;html=1;pointerEvents=0;align=center;verticalAlign=top;fontFamily=Helvetica;fontSize=12;fillColor=#000000;strokeColor=#000000;rotation=-90;" parent="fs3QnoUxzOffLrFysb8_-39" vertex="1">
          <mxGeometry x="13" y="13" width="5" height="5" as="geometry" />
        </mxCell>
        <mxCell id="8xMyrT0MTlSikUFPobzy-1" value="(0, N)" style="text;html=1;align=center;verticalAlign=middle;resizable=0;points=[];autosize=1;strokeColor=none;fillColor=none;fontFamily=Helvetica;fontSize=10;fontColor=default;" vertex="1" parent="1">
          <mxGeometry x="494" y="-466.5" width="50" height="30" as="geometry" />
        </mxCell>
        <mxCell id="8xMyrT0MTlSikUFPobzy-2" value="(0, N)" style="text;html=1;align=center;verticalAlign=middle;resizable=0;points=[];autosize=1;strokeColor=none;fillColor=none;fontFamily=Helvetica;fontSize=10;fontColor=default;" vertex="1" parent="1">
          <mxGeometry x="494" y="-795" width="50" height="30" as="geometry" />
        </mxCell>
        <mxCell id="8xMyrT0MTlSikUFPobzy-3" value="" style="group;rotation=-90;" vertex="1" connectable="0" parent="1">
          <mxGeometry x="442" y="-840" width="5" height="30" as="geometry" />
        </mxCell>
        <mxCell id="8xMyrT0MTlSikUFPobzy-4" value="" style="endArrow=none;html=1;rounded=0;fontFamily=Helvetica;fontSize=12;fontColor=default;entryX=0;entryY=0;entryDx=0;entryDy=0;" edge="1" parent="8xMyrT0MTlSikUFPobzy-3">
          <mxGeometry width="50" height="50" relative="1" as="geometry">
            <mxPoint x="-12" y="15" as="sourcePoint" />
            <mxPoint x="13" y="15" as="targetPoint" />
          </mxGeometry>
        </mxCell>
        <mxCell id="8xMyrT0MTlSikUFPobzy-5" value="" style="ellipse;whiteSpace=wrap;html=1;pointerEvents=0;align=center;verticalAlign=top;fontFamily=Helvetica;fontSize=12;fillColor=#000000;strokeColor=#000000;rotation=-90;" vertex="1" parent="8xMyrT0MTlSikUFPobzy-3">
          <mxGeometry x="13" y="13" width="5" height="5" as="geometry" />
        </mxCell>
        <mxCell id="8xMyrT0MTlSikUFPobzy-6" value="" style="group" vertex="1" connectable="0" parent="1">
          <mxGeometry x="384" y="-393" width="5" height="30" as="geometry" />
        </mxCell>
        <mxCell id="8xMyrT0MTlSikUFPobzy-7" value="" style="endArrow=none;html=1;rounded=0;fontFamily=Helvetica;fontSize=12;fontColor=default;entryX=0;entryY=0;entryDx=0;entryDy=0;" edge="1" parent="8xMyrT0MTlSikUFPobzy-6">
          <mxGeometry width="50" height="50" relative="1" as="geometry">
            <mxPoint x="2.5" y="30" as="sourcePoint" />
            <mxPoint x="2.5" y="5" as="targetPoint" />
          </mxGeometry>
        </mxCell>
        <mxCell id="8xMyrT0MTlSikUFPobzy-8" value="" style="ellipse;whiteSpace=wrap;html=1;pointerEvents=0;align=center;verticalAlign=top;fontFamily=Helvetica;fontSize=12;fillColor=#000000;strokeColor=#000000;fontColor=default;rotation=-180;" vertex="1" parent="8xMyrT0MTlSikUFPobzy-6">
          <mxGeometry width="5" height="5" as="geometry" />
        </mxCell>
        <mxCell id="8xMyrT0MTlSikUFPobzy-9" value="IDSegnalazione" style="text;html=1;align=center;verticalAlign=middle;resizable=0;points=[];autosize=1;strokeColor=none;fillColor=none;fontFamily=Helvetica;fontSize=10;fontColor=default;" vertex="1" parent="1">
          <mxGeometry x="336.62" y="-415.5" width="90" height="30" as="geometry" />
        </mxCell>
        <mxCell id="8xMyrT0MTlSikUFPobzy-22" value="Ruolo" style="text;html=1;align=center;verticalAlign=middle;resizable=0;points=[];autosize=1;strokeColor=none;fillColor=none;fontFamily=Helvetica;fontSize=10;fontColor=default;" vertex="1" parent="1">
          <mxGeometry x="1019.9999999999999" y="-210" width="50" height="30" as="geometry" />
        </mxCell>
        <mxCell id="8xMyrT0MTlSikUFPobzy-29" value="Email" style="text;html=1;align=center;verticalAlign=middle;resizable=0;points=[];autosize=1;strokeColor=none;fillColor=none;fontFamily=Helvetica;fontSize=10;fontColor=default;" vertex="1" parent="1">
          <mxGeometry x="1019" y="-229.5" width="50" height="30" as="geometry" />
        </mxCell>
        <mxCell id="8xMyrT0MTlSikUFPobzy-16" value="" style="endArrow=none;html=1;rounded=0;fontFamily=Helvetica;fontSize=12;fontColor=default;" edge="1" parent="1">
          <mxGeometry width="50" height="50" relative="1" as="geometry">
            <mxPoint x="1168" y="-178" as="sourcePoint" />
            <mxPoint x="1138" y="-178" as="targetPoint" />
          </mxGeometry>
        </mxCell>
        <mxCell id="8xMyrT0MTlSikUFPobzy-20" value="DataInizio" style="text;html=1;align=center;verticalAlign=middle;resizable=0;points=[];autosize=1;strokeColor=none;fillColor=none;fontFamily=Helvetica;fontSize=10;fontColor=default;rotation=0;flipV=0;flipH=1;" vertex="1" parent="1">
          <mxGeometry x="1138.12" y="-171.5" width="70" height="30" as="geometry" />
        </mxCell>
        <mxCell id="8xMyrT0MTlSikUFPobzy-21" value="DataFine" style="text;html=1;align=center;verticalAlign=middle;resizable=0;points=[];autosize=1;strokeColor=none;fillColor=none;fontFamily=Helvetica;fontSize=10;fontColor=default;rotation=0;flipV=1;" vertex="1" parent="1">
          <mxGeometry x="1093" y="-171.5" width="60" height="30" as="geometry" />
        </mxCell>
        <mxCell id="8xMyrT0MTlSikUFPobzy-11" value="" style="endArrow=none;html=1;rounded=0;fontFamily=Helvetica;fontSize=12;fontColor=default;entryX=0;entryY=0;entryDx=0;entryDy=0;" edge="1" parent="1">
          <mxGeometry width="50" height="50" relative="1" as="geometry">
            <mxPoint x="1130.5" y="-193" as="sourcePoint" />
            <mxPoint x="1130.5" y="-168" as="targetPoint" />
          </mxGeometry>
        </mxCell>
        <mxCell id="8xMyrT0MTlSikUFPobzy-12" value="" style="ellipse;whiteSpace=wrap;html=1;pointerEvents=0;align=center;verticalAlign=top;fontFamily=Helvetica;fontSize=12;fontColor=default;fillColor=none;gradientColor=none;rotation=-360;" vertex="1" parent="1">
          <mxGeometry x="1128" y="-168" width="5" height="5" as="geometry" />
        </mxCell>
        <mxCell id="8xMyrT0MTlSikUFPobzy-13" value="" style="group;rotation=-270;pointerEvents=0;align=center;verticalAlign=top;fontFamily=Helvetica;fontSize=12;fontColor=default;fillColor=none;gradientColor=none;" vertex="1" connectable="0" parent="1">
          <mxGeometry x="1128" y="-193" width="5" height="30" as="geometry" />
        </mxCell>
        <mxCell id="8xMyrT0MTlSikUFPobzy-14" value="" style="endArrow=none;html=1;rounded=0;fontFamily=Helvetica;fontSize=12;fontColor=default;entryX=0;entryY=0;entryDx=0;entryDy=0;" edge="1" parent="8xMyrT0MTlSikUFPobzy-13">
          <mxGeometry width="50" height="50" relative="1" as="geometry">
            <mxPoint x="17" y="15" as="sourcePoint" />
            <mxPoint x="-8" y="15" as="targetPoint" />
          </mxGeometry>
        </mxCell>
        <mxCell id="8xMyrT0MTlSikUFPobzy-15" value="" style="ellipse;whiteSpace=wrap;html=1;pointerEvents=0;align=center;verticalAlign=top;fontFamily=Helvetica;fontSize=12;fillColor=#000000;strokeColor=#000000;rotation=-270;fontColor=default;" vertex="1" parent="8xMyrT0MTlSikUFPobzy-13">
          <mxGeometry x="-13" y="12" width="5" height="5" as="geometry" />
        </mxCell>
        <mxCell id="8xMyrT0MTlSikUFPobzy-18" value="" style="endArrow=none;html=1;rounded=0;fontFamily=Helvetica;fontSize=12;fontColor=default;entryX=0;entryY=0;entryDx=0;entryDy=0;" edge="1" parent="1">
          <mxGeometry width="50" height="50" relative="1" as="geometry">
            <mxPoint x="1156.5" y="-193" as="sourcePoint" />
            <mxPoint x="1156.5" y="-168" as="targetPoint" />
          </mxGeometry>
        </mxCell>
        <mxCell id="8xMyrT0MTlSikUFPobzy-19" value="" style="ellipse;whiteSpace=wrap;html=1;pointerEvents=0;align=center;verticalAlign=top;fontFamily=Helvetica;fontSize=12;fontColor=default;fillColor=none;gradientColor=none;rotation=-360;" vertex="1" parent="1">
          <mxGeometry x="1154" y="-168" width="5" height="5" as="geometry" />
        </mxCell>
        <mxCell id="8xMyrT0MTlSikUFPobzy-31" value="" style="group;direction=east;rotation=-90;flipH=1;" vertex="1" connectable="0" parent="1">
          <mxGeometry x="1074" y="-210" width="5" height="30" as="geometry" />
        </mxCell>
        <mxCell id="8xMyrT0MTlSikUFPobzy-32" value="" style="endArrow=none;html=1;rounded=0;fontFamily=Helvetica;fontSize=12;fontColor=default;entryX=0;entryY=0;entryDx=0;entryDy=0;" edge="1" parent="8xMyrT0MTlSikUFPobzy-31">
          <mxGeometry width="50" height="50" relative="1" as="geometry">
            <mxPoint x="17" y="15" as="sourcePoint" />
            <mxPoint x="-8" y="15" as="targetPoint" />
          </mxGeometry>
        </mxCell>
        <mxCell id="8xMyrT0MTlSikUFPobzy-33" value="" style="ellipse;whiteSpace=wrap;html=1;pointerEvents=0;align=center;verticalAlign=top;fontFamily=Helvetica;fontSize=12;fontColor=default;fillColor=none;gradientColor=none;rotation=-90;" vertex="1" parent="8xMyrT0MTlSikUFPobzy-31">
          <mxGeometry x="-13" y="13" width="5" height="5" as="geometry" />
        </mxCell>
        <mxCell id="8xMyrT0MTlSikUFPobzy-34" value="" style="group;direction=east;rotation=-90;flipH=1;" vertex="1" connectable="0" parent="1">
          <mxGeometry x="1074" y="-228" width="5" height="30" as="geometry" />
        </mxCell>
        <mxCell id="8xMyrT0MTlSikUFPobzy-35" value="" style="endArrow=none;html=1;rounded=0;fontFamily=Helvetica;fontSize=12;fontColor=default;entryX=0;entryY=0;entryDx=0;entryDy=0;" edge="1" parent="8xMyrT0MTlSikUFPobzy-34">
          <mxGeometry width="50" height="50" relative="1" as="geometry">
            <mxPoint x="17" y="15" as="sourcePoint" />
            <mxPoint x="-8" y="15" as="targetPoint" />
          </mxGeometry>
        </mxCell>
        <mxCell id="8xMyrT0MTlSikUFPobzy-36" value="" style="ellipse;whiteSpace=wrap;html=1;pointerEvents=0;align=center;verticalAlign=top;fontFamily=Helvetica;fontSize=12;fontColor=default;fillColor=none;gradientColor=none;rotation=-90;" vertex="1" parent="8xMyrT0MTlSikUFPobzy-34">
          <mxGeometry x="-13" y="13" width="5" height="5" as="geometry" />
        </mxCell>
        <mxCell id="8xMyrT0MTlSikUFPobzy-37" value="Stato" style="text;html=1;align=center;verticalAlign=middle;resizable=0;points=[];autosize=1;strokeColor=none;fillColor=none;fontFamily=Helvetica;fontSize=10;fontColor=default;" vertex="1" parent="1">
          <mxGeometry x="1256.12" y="-249.5" width="50" height="30" as="geometry" />
        </mxCell>
        <mxCell id="8xMyrT0MTlSikUFPobzy-38" value="DataRegistrazione" style="text;html=1;align=center;verticalAlign=middle;resizable=0;points=[];autosize=1;strokeColor=none;fillColor=none;fontFamily=Helvetica;fontSize=10;fontColor=default;" vertex="1" parent="1">
          <mxGeometry x="1146.1200000000001" y="-252" width="110" height="30" as="geometry" />
        </mxCell>
        <mxCell id="8xMyrT0MTlSikUFPobzy-39" value="" style="group" vertex="1" connectable="0" parent="1">
          <mxGeometry x="1276.5" y="-226" width="5" height="30" as="geometry" />
        </mxCell>
        <mxCell id="8xMyrT0MTlSikUFPobzy-40" value="" style="endArrow=none;html=1;rounded=0;fontFamily=Helvetica;fontSize=12;fontColor=default;entryX=0;entryY=0;entryDx=0;entryDy=0;" edge="1" parent="8xMyrT0MTlSikUFPobzy-39">
          <mxGeometry width="50" height="50" relative="1" as="geometry">
            <mxPoint x="2.5" y="30" as="sourcePoint" />
            <mxPoint x="2.5" y="5" as="targetPoint" />
          </mxGeometry>
        </mxCell>
        <mxCell id="8xMyrT0MTlSikUFPobzy-41" value="" style="ellipse;whiteSpace=wrap;html=1;pointerEvents=0;align=center;verticalAlign=top;fontFamily=Helvetica;fontSize=12;fontColor=default;fillColor=none;gradientColor=none;rotation=-180;" vertex="1" parent="8xMyrT0MTlSikUFPobzy-39">
          <mxGeometry width="5" height="5" as="geometry" />
        </mxCell>
        <mxCell id="8xMyrT0MTlSikUFPobzy-42" value="" style="group" vertex="1" connectable="0" parent="1">
          <mxGeometry x="1210.5" y="-230" width="5" height="30" as="geometry" />
        </mxCell>
        <mxCell id="8xMyrT0MTlSikUFPobzy-43" value="" style="endArrow=none;html=1;rounded=0;fontFamily=Helvetica;fontSize=12;fontColor=default;entryX=0;entryY=0;entryDx=0;entryDy=0;" edge="1" parent="8xMyrT0MTlSikUFPobzy-42">
          <mxGeometry width="50" height="50" relative="1" as="geometry">
            <mxPoint x="2.5" y="30" as="sourcePoint" />
            <mxPoint x="2.5" y="5" as="targetPoint" />
          </mxGeometry>
        </mxCell>
        <mxCell id="8xMyrT0MTlSikUFPobzy-44" value="" style="ellipse;whiteSpace=wrap;html=1;pointerEvents=0;align=center;verticalAlign=top;fontFamily=Helvetica;fontSize=12;fontColor=default;fillColor=none;gradientColor=none;rotation=-180;" vertex="1" parent="8xMyrT0MTlSikUFPobzy-42">
          <mxGeometry width="5" height="5" as="geometry" />
        </mxCell>
      </root>
    </mxGraphModel>
  </diagram>
</mxfile>
